{
  "accessors": [
    {
      "bufferView": 2,
      "componentType": 5126,
      "count": 8427,
      "max": [
        150.23629760742188,
        608.7766723632813,
        245.7864990234375
      ],
      "min": [
        -143.65919494628906,
        -453.0201110839844,
        3.962517023086548
      ],
      "type": "VEC3"
    },
    {
      "bufferView": 2,
      "byteOffset": 101124,
      "componentType": 5126,
      "count": 8427,
      "max": [
        0.9999980926513672,
        0.9999992847442627,
        1.0
      ],
      "min": [
        -0.9999998807907104,
        -0.9999961853027344,
        -0.9999973177909851
      ],
      "type": "VEC3"
    },
    {
      "bufferView": 1,
      "componentType": 5126,
      "count": 8427,
      "max": [
        3.167968988418579,
        1.09210205078125
      ],
      "min": [
        -0.2531740069389343,
        -0.6376950144767761
      ],
      "type": "VEC2"
    },
    {
      "bufferView": 0,
      "componentType": 5125,
      "count": 16095,
      "type": "SCALAR"
    },
    {
      "bufferView": 2,
      "byteOffset": 202248,
      "componentType": 5126,
      "count": 4451,
      "max": [
        149.47459411621094,
        596.17041015625,
        237.27450561523438
      ],
      "min": [
        -121.43930053710938,
        -453.0201110839844,
        3.9625020027160645
      ],
      "type": "VEC3"
    },
    {
      "bufferView": 2,
      "byteOffset": 255660,
      "componentType": 5126,
      "count": 4451,
      "max": [
        0.9999998211860657,
        0.9999986886978149,
        0.9999964833259583
      ],
      "min": [
        -0.9999977946281433,
        -0.9999986290931702,
        -0.9999929070472717
      ],
      "type": "VEC3"
    },
    {
      "bufferView": 1,
      "byteOffset": 67416,
      "componentType": 5126,
      "count": 4451,
      "max": [
        0.9975590109825134,
        1.09210205078125
      ],
      "min": [
        0.002245000097900629,
        -0.9970700144767761
      ],
      "type": "VEC2"
    },
    {
      "bufferView": 0,
      "byteOffset": 64380,
      "componentType": 5125,
      "count": 7893,
      "type": "SCALAR"
    }
  ],
  "asset": {
    "extras": {
      "author": "Muhamad Mirza Arrafi (https://sketchfab.com/nazidefenseforceofficial)",
      "license": "CC-BY-4.0 (http://creativecommons.org/licenses/by/4.0/)",
      "source": "https://sketchfab.com/3d-models/uss-dwight-deisenhower-cvn-69-aircraft-carrier-f22c344e834f4c3781f676b372a94b2d",
      "title": "USS DWIGHT D.EISENHOWER CVN-69 AIRCRAFT CARRIER"
    },
    "generator": "Sketchfab-16.59.0",
    "version": "2.0"
  },
  "bufferViews": [
    {
      "buffer": 0,
      "byteLength": 95952,
      "name": "floatBufferViews",
      "target": 34963
    },
    {
      "buffer": 0,
      "byteLength": 103024,
      "byteOffset": 95952,
      "byteStride": 8,
      "name": "floatBufferViews",
      "target": 34962
    },
    {
      "buffer": 0,
      "byteLength": 309072,
      "byteOffset": 198976,
      "byteStride": 12,
      "name": "floatBufferViews",
      "target": 34962
    }
  ],
  "buffers": [
    {
      "byteLength": 508048,
      "uri": "scene.bin"
    }
  ],
  "images": [
    {
      "uri": "textures/Material_baseColor.png"
    },
    {
      "uri": "textures/Material_1_baseColor.png"
    }
  ],
  "materials": [
    {
      "doubleSided": true,
      "name": "Material",
      "pbrMetallicRoughness": {
        "baseColorTexture": {
          "index": 0
        },
        "metallicFactor": 0.0,
        "roughnessFactor": 0.4
      }
    },
    {
      "doubleSided": true,
      "name": "Material_1",
      "pbrMetallicRoughness": {
        "baseColorTexture": {
          "index": 1
        },
        "metallicFactor": 0.0,
        "roughnessFactor": 0.4
      }
    }
  ],
  "meshes": [
    {
      "name": "Object_0",
      "primitives": [
        {
          "attributes": {
            "NORMAL": 1,
            "POSITION": 0,
            "TEXCOORD_0": 2
          },
          "indices": 3,
          "material": 1,
          "mode": 4
        }
      ]
    },
    {
      "name": "Object_1",
      "primitives": [
        {
          "attributes": {
            "NORMAL": 5,
            "POSITION": 4,
            "TEXCOORD_0": 6
          },
          "indices": 7,
          "material": 0,
          "mode": 4
        }
      ]
    }
  ],
  "nodes": [
    {
      "children": [
        1
      ],
      "matrix": [
        1.0,
        0.0,
        0.0,
        0.0,
        0.0,
        2.220446049250313e-16,
        -1.0,
        0.0,
        0.0,
        1.0,
        2.220446049250313e-16,
        0.0,
        0.0,
        0.0,
        0.0,
        1.0
      ],
      "name": "Sketchfab_model"
    },
    {
      "children": [
        2,
        3
      ],
      "name": "USS DWIGHT D.EISENHOWER CVN-69 AIRCRAFT CARRIER.obj.cleaner.materialmerger.gles"
    },
    {
      "mesh": 0,
      "name": "Object_2"
    },
    {
      "mesh": 1,
      "name": "Object_3"
    }
  ],
  "samplers": [
    {
      "magFilter": 9729,
      "minFilter": 9987,
      "wrapS": 10497,
      "wrapT": 10497
    }
  ],
  "scene": 0,
  "scenes": [
    {
      "name": "Sketchfab_Scene",
      "nodes": [
        0
      ]
    }
  ],
  "textures": [
    {
      "sampler": 0,
      "source": 0
    },
    {
      "sampler": 0,
      "source": 1
    }
  ]
}
