{
	"asset":{
		"generator":"Khronos glTF Blender I/O v5.1.20",
		"version":"2.0"
	},
	"extensionsUsed":[
		"KHR_materials_emissive_strength"
	],
	"scene":0,
	"scenes":[
		{
			"name":"Scene",
			"nodes":[
				0,
				1,
				2,
				3,
				4,
				5,
				6,
				7,
				8,
				9,
				10,
				11,
				12,
				13,
				14,
				15,
				16,
				17,
				18,
				19,
				20,
				21,
				22,
				23,
				24,
				25,
				26,
				27,
				28,
				29,
				30,
				31,
				32,
				33,
				34,
				35,
				36,
				37,
				38,
				39,
				40,
				41,
				42,
				43,
				44,
				45,
				46,
				47,
				48,
				49,
				50,
				51,
				52,
				53,
				54,
				55,
				56,
				57,
				58,
				59,
				60,
				61,
				62,
				63,
				64
			]
		}
	],
	"nodes":[
		{
			"mesh":0,
			"name":"cocpit-glass",
			"translation":[
				0,
				0.7026804089546204,
				3.5792267322540283
			]
		},
		{
			"mesh":1,
			"name":"mainwing-back-left",
			"translation":[
				1.751288652420044,
				0.18447522819042206,
				-1.8491228818893433
			]
		},
		{
			"mesh":2,
			"name":"rudder",
			"rotation":[
				-0.0028233672492206097,
				-0.1366356760263443,
				0.08519087731838226,
				0.9869475364685059
			],
			"scale":[
				0.2124190777540207,
				0.6179606318473816,
				0.21241910755634308
			],
			"translation":[
				-0.00047750212252140045,
				1.6249933242797852,
				-4.364633560180664
			]
		},
		{
			"mesh":3,
			"name":"stabilator",
			"translation":[
				0.7154487371444702,
				0.16217327117919922,
				-3.603663921356201
			]
		},
		{
			"mesh":4,
			"name":"Cube.004",
			"translation":[
				0.35939764976501465,
				-0.4829545021057129,
				-2.467630386352539
			]
		},
		{
			"mesh":5,
			"name":"mainwing-stand1",
			"translation":[
				2.734518527984619,
				-0.002903088927268982,
				-1.2432407140731812
			]
		},
		{
			"mesh":6,
			"name":"air-input-support",
			"translation":[
				0,
				-0.2099260687828064,
				1.9267252683639526
			]
		},
		{
			"mesh":7,
			"name":"engine",
			"translation":[
				0.001127029536291957,
				0.13732515275478363,
				-4.105424880981445
			]
		},
		{
			"mesh":8,
			"name":"front-wing",
			"translation":[
				0,
				-0.04215284809470177,
				0
			]
		},
		{
			"mesh":9,
			"name":"Circle.001",
			"translation":[
				0,
				1.9934896230697632,
				-3.8399152755737305
			]
		},
		{
			"mesh":10,
			"name":"mainwing-ass",
			"translation":[
				3.8266525268554688,
				0.18007367849349976,
				-1.1619051694869995
			]
		},
		{
			"mesh":11,
			"name":"Circle",
			"translation":[
				1.343576192855835,
				-0.5427095293998718,
				0.38138025999069214
			]
		},
		{
			"mesh":12,
			"name":"Plane",
			"translation":[
				0,
				1.0094096660614014,
				-1.534977912902832
			]
		},
		{
			"mesh":13,
			"name":"Plane.001",
			"translation":[
				0,
				0.9988863468170166,
				0.5556526184082031
			]
		},
		{
			"mesh":14,
			"name":"Plane.002",
			"translation":[
				0.019265539944171906,
				0.3558858036994934,
				4.3710713386535645
			]
		},
		{
			"mesh":15,
			"name":"Circle.004",
			"translation":[
				2.7352216243743896,
				-0.28112906217575073,
				-0.24805587530136108
			]
		},
		{
			"mesh":16,
			"name":"cocpit-frame",
			"translation":[
				0,
				-0.07370692491531372,
				0
			]
		},
		{
			"mesh":17,
			"name":"Circle.005",
			"translation":[
				3.3974647521972656e-06,
				0.45071786642074585,
				3.990032911300659
			]
		},
		{
			"mesh":18,
			"name":"Circle.008",
			"translation":[
				-0.0008328258991241455,
				0.9404945969581604,
				-4.790421009063721
			]
		},
		{
			"mesh":19,
			"name":"tail-wing.001",
			"translation":[
				0,
				-0.07370692491531372,
				0
			]
		},
		{
			"mesh":20,
			"name":"body.001",
			"translation":[
				0,
				-0.07370692491531372,
				0
			]
		},
		{
			"mesh":21,
			"name":"Plane.008",
			"translation":[
				2.711461067199707,
				-0.1766941249370575,
				-1.0913161039352417
			]
		},
		{
			"mesh":22,
			"name":"Cube",
			"translation":[
				2.734301805496216,
				-0.1331036388874054,
				-0.9255279302597046
			]
		},
		{
			"mesh":23,
			"name":"Circle.012",
			"translation":[
				0,
				0.4382775127887726,
				3.7424139976501465
			]
		},
		{
			"mesh":24,
			"name":"body.002",
			"translation":[
				0,
				-0.07370692491531372,
				0
			]
		},
		{
			"mesh":25,
			"name":"Circle.010",
			"translation":[
				0,
				0.4382775127887726,
				3.7424139976501465
			]
		},
		{
			"mesh":26,
			"name":"Circle.011",
			"translation":[
				-0.26551446318626404,
				-0.4714863896369934,
				2.068434953689575
			]
		},
		{
			"mesh":27,
			"name":"Circle.013",
			"translation":[
				2.8182427883148193,
				0.15020574629306793,
				-0.6093931198120117
			]
		},
		{
			"mesh":28,
			"name":"body-flying"
		},
		{
			"mesh":29,
			"name":"cocpit-frame.001",
			"translation":[
				0,
				-0.07370692491531372,
				0
			]
		},
		{
			"mesh":30,
			"name":"Circle.033",
			"translation":[
				0.33183372020721436,
				-0.18886497616767883,
				2.0972681045532227
			]
		},
		{
			"mesh":31,
			"name":"Circle.034",
			"translation":[
				0.33183372020721436,
				-0.18886497616767883,
				2.0972681045532227
			]
		},
		{
			"mesh":32,
			"name":"Circle.035",
			"translation":[
				0.33183372020721436,
				-0.18886497616767883,
				2.0972681045532227
			]
		},
		{
			"mesh":33,
			"name":"Circle.014",
			"translation":[
				3.548722982406616,
				0.1698848307132721,
				-1.9355897903442383
			]
		},
		{
			"mesh":34,
			"name":"mainwing-back-right",
			"translation":[
				1.751288652420044,
				0.18447522819042206,
				-1.8491228818893433
			]
		},
		{
			"mesh":35,
			"name":"cockpit-interior",
			"translation":[
				0.0010561347007751465,
				0.29270365834236145,
				2.8332479000091553
			]
		},
		{
			"mesh":36,
			"name":"cockpit-seat",
			"translation":[
				0.0010561347007751465,
				0.6913225054740906,
				2.3398709297180176
			]
		},
		{
			"mesh":37,
			"name":"cockpit-hud-stand",
			"translation":[
				0.046035945415496826,
				0.6716940999031067,
				3.183605194091797
			]
		},
		{
			"mesh":38,
			"name":"hud-display",
			"translation":[
				0,
				0.7359592914581299,
				3.1424667835235596
			]
		},
		{
			"mesh":39,
			"name":"cockpit-seat-cushion",
			"translation":[
				0.04450157657265663,
				0.6654683947563171,
				2.443685531616211
			]
		},
		{
			"mesh":40,
			"name":"hud-projector",
			"translation":[
				0,
				0.642774760723114,
				3.10105562210083
			]
		},
		{
			"mesh":41,
			"name":"cockpit-opening-link",
			"translation":[
				0.00012010335922241211,
				0.7397775650024414,
				2.1059200763702393
			]
		},
		{
			"mesh":42,
			"name":"cockpit-opening-actuator",
			"translation":[
				0.00012010336649836972,
				0.9081516265869141,
				2.0495188236236572
			]
		},
		{
			"mesh":43,
			"name":"air-brake-up",
			"rotation":[
				2.2579719370696694e-05,
				-0.0020634778775274754,
				-0.010941876098513603,
				0.9999380111694336
			],
			"translation":[
				0.5870460271835327,
				0.18155807256698608,
				-3.8514928817749023
			]
		},
		{
			"mesh":44,
			"name":"air-brake-down-arm",
			"rotation":[
				0.007752996403723955,
				0,
				0,
				0.9999699592590332
			],
			"translation":[
				0.7296204566955566,
				0.1327306181192398,
				-4.164760589599609
			]
		},
		{
			"mesh":45,
			"name":"air-brake-center",
			"translation":[
				0.5925160646438599,
				0.13010403513908386,
				-3.962033748626709
			]
		},
		{
			"mesh":46,
			"name":"air-brake-base",
			"translation":[
				0.6004139184951782,
				0.13065585494041443,
				-3.820246934890747
			]
		},
		{
			"mesh":47,
			"name":"air-brake-joint",
			"translation":[
				0.5918360352516174,
				0.12928177416324615,
				-4.130909442901611
			]
		},
		{
			"mesh":48,
			"name":"air-brake-down",
			"rotation":[
				0.043092112988233566,
				0.9990665912628174,
				0.0030090692453086376,
				0.00012983189662918448
			],
			"scale":[
				-0.1268787682056427,
				-0.06582700461149216,
				-0.40912970900535583
			],
			"translation":[
				0.5859028100967407,
				0.08377797901630402,
				-3.8467447757720947
			]
		},
		{
			"mesh":49,
			"name":"air-brake-up-arm",
			"rotation":[
				0.7071068286895752,
				0,
				0,
				0.7071068286895752
			],
			"translation":[
				0.5954398512840271,
				0.15793929994106293,
				-4.159734725952148
			]
		},
		{
			"mesh":50,
			"name":"Cube.020",
			"translation":[
				3.8699564933776855,
				0.17898258566856384,
				-0.8198915123939514
			]
		},
		{
			"mesh":51,
			"name":"Cube.021",
			"translation":[
				0,
				2.35036301612854,
				-4.689222812652588
			]
		},
		{
			"mesh":52,
			"name":"engine-blade.002",
			"rotation":[
				-0.00019668413733597845,
				0.07418817281723022,
				0,
				0.9972442388534546
			],
			"translation":[
				0.36425089836120605,
				0.13955634832382202,
				-4.199998378753662
			]
		},
		{
			"name":"Engine-Border-Guide",
			"translation":[
				0.000708162784576416,
				0.1332062929868698,
				-4.2428765296936035
			]
		},
		{
			"mesh":53,
			"name":"engine-blade.004",
			"rotation":[
				-0.0001967135031009093,
				-0.07351363450288773,
				0,
				0.9972942471504211
			],
			"translation":[
				-0.3608851432800293,
				0.13955634832382202,
				-4.199998378753662
			]
		},
		{
			"mesh":54,
			"name":"engine-blade.005",
			"rotation":[
				0.07487355917692184,
				-6.939854210941121e-05,
				0,
				0.9971930384635925
			],
			"translation":[
				-0.00034078769385814667,
				-0.22908258438110352,
				-4.199998378753662
			]
		},
		{
			"mesh":55,
			"name":"engine-blade.006",
			"rotation":[
				-0.0728277787566185,
				-6.94243935868144e-05,
				0,
				0.9973445534706116
			],
			"translation":[
				-0.00034075789153575897,
				0.49605345726013184,
				-4.199998378753662
			]
		},
		{
			"mesh":56,
			"name":"engine-blade.003",
			"rotation":[
				0.036887671798467636,
				0.06490594148635864,
				0,
				0.997209370136261
			],
			"translation":[
				0.31871140003204346,
				-0.0425410121679306,
				-4.199998378753662
			]
		},
		{
			"mesh":57,
			"name":"engine-blade.007",
			"rotation":[
				-0.03696305304765701,
				-0.06300690770149231,
				0,
				0.9973284602165222
			],
			"translation":[
				-0.3092747926712036,
				0.3200269937515259,
				-4.199998378753662
			]
		},
		{
			"mesh":58,
			"name":"engine-blade.008",
			"rotation":[
				0.06478003412485123,
				-0.03693364933133125,
				0,
				0.9972158670425415
			],
			"translation":[
				-0.18135367333889008,
				-0.17949584126472473,
				-4.199998378753662
			]
		},
		{
			"mesh":59,
			"name":"engine-blade.009",
			"rotation":[
				-0.06313319504261017,
				0.03691723942756653,
				0,
				0.9973220825195312
			],
			"translation":[
				0.1812143623828888,
				0.44849035143852234,
				-4.199998378753662
			]
		},
		{
			"mesh":60,
			"name":"engine-blade.010",
			"rotation":[
				0.06403045356273651,
				0.03831225633621216,
				0,
				0.997212290763855
			],
			"translation":[
				0.18812516331672668,
				-0.17581892013549805,
				-4.199998378753662
			]
		},
		{
			"mesh":61,
			"name":"engine-blade.011",
			"rotation":[
				-0.06388267874717712,
				-0.0355379693210125,
				0,
				0.9973244667053223
			],
			"translation":[
				-0.1744428128004074,
				0.452167272567749,
				-4.199998378753662
			]
		},
		{
			"mesh":62,
			"name":"engine-blade.012",
			"rotation":[
				0.03727101534605026,
				-0.06383928656578064,
				0,
				0.9972639679908752
			],
			"translation":[
				-0.3134213089942932,
				-0.04439273476600647,
				-4.199998378753662
			]
		},
		{
			"mesh":63,
			"name":"engine-blade.013",
			"rotation":[
				-0.036579690873622894,
				0.06407392770051956,
				0,
				0.9972745180130005
			],
			"translation":[
				0.31456494331359863,
				0.31817519664764404,
				-4.199998378753662
			]
		}
	],
	"animations":[
		{
			"channels":[
				{
					"sampler":0,
					"target":{
						"node":2,
						"path":"translation"
					}
				},
				{
					"sampler":1,
					"target":{
						"node":2,
						"path":"rotation"
					}
				},
				{
					"sampler":2,
					"target":{
						"node":2,
						"path":"scale"
					}
				}
			],
			"name":"rudderAction",
			"samplers":[
				{
					"input":256,
					"interpolation":"STEP",
					"output":257
				},
				{
					"input":258,
					"interpolation":"LINEAR",
					"output":259
				},
				{
					"input":256,
					"interpolation":"STEP",
					"output":260
				}
			]
		},
		{
			"channels":[
				{
					"sampler":0,
					"target":{
						"node":43,
						"path":"translation"
					}
				},
				{
					"sampler":1,
					"target":{
						"node":43,
						"path":"rotation"
					}
				},
				{
					"sampler":2,
					"target":{
						"node":43,
						"path":"scale"
					}
				}
			],
			"name":"air-brake-upAction",
			"samplers":[
				{
					"input":258,
					"interpolation":"LINEAR",
					"output":261
				},
				{
					"input":258,
					"interpolation":"LINEAR",
					"output":262
				},
				{
					"input":256,
					"interpolation":"STEP",
					"output":263
				}
			]
		},
		{
			"channels":[
				{
					"sampler":0,
					"target":{
						"node":44,
						"path":"rotation"
					}
				}
			],
			"name":"air-brake-down-armAction",
			"samplers":[
				{
					"input":258,
					"interpolation":"LINEAR",
					"output":264
				}
			]
		},
		{
			"channels":[
				{
					"sampler":0,
					"target":{
						"node":45,
						"path":"translation"
					}
				}
			],
			"name":"air-brake-centerAction.001",
			"samplers":[
				{
					"input":258,
					"interpolation":"LINEAR",
					"output":265
				}
			]
		},
		{
			"channels":[
				{
					"sampler":0,
					"target":{
						"node":48,
						"path":"translation"
					}
				},
				{
					"sampler":1,
					"target":{
						"node":48,
						"path":"rotation"
					}
				},
				{
					"sampler":2,
					"target":{
						"node":48,
						"path":"scale"
					}
				}
			],
			"name":"air-brake-downAction",
			"samplers":[
				{
					"input":258,
					"interpolation":"LINEAR",
					"output":266
				},
				{
					"input":258,
					"interpolation":"LINEAR",
					"output":267
				},
				{
					"input":256,
					"interpolation":"STEP",
					"output":268
				}
			]
		},
		{
			"channels":[
				{
					"sampler":0,
					"target":{
						"node":49,
						"path":"rotation"
					}
				}
			],
			"name":"air-brake-up-armAction",
			"samplers":[
				{
					"input":258,
					"interpolation":"LINEAR",
					"output":269
				}
			]
		}
	],
	"materials":[
		{
			"doubleSided":true,
			"name":"cocpit-glass"
		},
		{
			"doubleSided":true,
			"name":"body",
			"pbrMetallicRoughness":{
				"baseColorTexture":{
					"index":0
				},
				"metallicFactor":0.5045316815376282,
				"roughnessFactor":0.6072507500648499
			}
		},
		{
			"doubleSided":true,
			"name":"engine",
			"pbrMetallicRoughness":{
				"baseColorFactor":[
					0.04174899682402611,
					0.04174899682402611,
					0.04174899682402611,
					1
				],
				"metallicFactor":0.7190332412719727,
				"roughnessFactor":0.3413897156715393
			}
		},
		{
			"doubleSided":true,
			"name":"white",
			"pbrMetallicRoughness":{
				"baseColorFactor":[
					0.1672918051481247,
					0.1792224496603012,
					0.20640158653259277,
					1
				],
				"metallicFactor":0.4984894394874573,
				"roughnessFactor":0.8006042242050171
			}
		},
		{
			"doubleSided":true,
			"name":"gray",
			"pbrMetallicRoughness":{
				"baseColorFactor":[
					0.08026333898305893,
					0.08026333898305893,
					0.08026333898305893,
					1
				],
				"metallicFactor":0.1359516978263855,
				"roughnessFactor":0.7809668183326721
			}
		},
		{
			"doubleSided":true,
			"emissiveFactor":[
				1,
				0.005982134025543928,
				0
			],
			"extensions":{
				"KHR_materials_emissive_strength":{
					"emissiveStrength":50
				}
			},
			"name":"light-side-red",
			"pbrMetallicRoughness":{
				"baseColorFactor":[
					0.8000074625015259,
					0.012704461812973022,
					0.0030305213294923306,
					1
				],
				"metallicFactor":0,
				"roughnessFactor":0.5
			}
		},
		{
			"doubleSided":true,
			"emissiveFactor":[
				0.007969383150339127,
				1,
				0.016837051138281822
			],
			"extensions":{
				"KHR_materials_emissive_strength":{
					"emissiveStrength":50
				}
			},
			"name":"light-side-green",
			"pbrMetallicRoughness":{
				"baseColorFactor":[
					0,
					0.8000156879425049,
					0.00021804057178087533,
					1
				],
				"metallicFactor":0,
				"roughnessFactor":0.5
			}
		},
		{
			"doubleSided":true,
			"name":"hud-display"
		},
		{
			"doubleSided":true,
			"emissiveFactor":[
				0.012541370961492323,
				1,
				0.017534505552142535
			],
			"extensions":{
				"KHR_materials_emissive_strength":{
					"emissiveStrength":1.8036329746246338
				}
			},
			"name":"hud-projector",
			"pbrMetallicRoughness":{
				"baseColorFactor":[
					0.03527123108506203,
					0.23541845381259918,
					0.007781763561069965,
					1
				],
				"metallicFactor":0,
				"roughnessFactor":0
			}
		},
		{
			"doubleSided":true,
			"name":"metal",
			"pbrMetallicRoughness":{
				"baseColorFactor":[
					0.6252759695053101,
					0.5574712753295898,
					0.48327481746673584,
					1
				],
				"roughnessFactor":0.1993957757949829
			}
		},
		{
			"doubleSided":true,
			"emissiveFactor":[
				1,
				1,
				1
			],
			"extensions":{
				"KHR_materials_emissive_strength":{
					"emissiveStrength":500
				}
			},
			"name":"light-white",
			"pbrMetallicRoughness":{
				"baseColorFactor":[
					0.800000011920929,
					0.800000011920929,
					0.800000011920929,
					1
				],
				"metallicFactor":0,
				"roughnessFactor":0.5
			}
		}
	],
	"meshes":[
		{
			"name":"Cube",
			"primitives":[
				{
					"attributes":{
						"POSITION":0,
						"NORMAL":1,
						"TEXCOORD_0":2
					},
					"indices":3,
					"material":0
				}
			]
		},
		{
			"name":"Cube.002",
			"primitives":[
				{
					"attributes":{
						"POSITION":4,
						"NORMAL":5,
						"TEXCOORD_0":6
					},
					"indices":7,
					"material":1
				}
			]
		},
		{
			"name":"Cube.003",
			"primitives":[
				{
					"attributes":{
						"POSITION":8,
						"NORMAL":9,
						"TEXCOORD_0":10
					},
					"indices":11,
					"material":1
				}
			]
		},
		{
			"name":"Cube.004",
			"primitives":[
				{
					"attributes":{
						"POSITION":12,
						"NORMAL":13,
						"TEXCOORD_0":14
					},
					"indices":15,
					"material":1
				}
			]
		},
		{
			"name":"Cube.005",
			"primitives":[
				{
					"attributes":{
						"POSITION":16,
						"NORMAL":17,
						"TEXCOORD_0":18
					},
					"indices":19,
					"material":1
				}
			]
		},
		{
			"name":"Cube.007",
			"primitives":[
				{
					"attributes":{
						"POSITION":20,
						"NORMAL":21,
						"TEXCOORD_0":22
					},
					"indices":23,
					"material":1
				}
			]
		},
		{
			"name":"Cube.008",
			"primitives":[
				{
					"attributes":{
						"POSITION":24,
						"NORMAL":25,
						"TEXCOORD_0":26
					},
					"indices":27,
					"material":1
				}
			]
		},
		{
			"name":"Circle",
			"primitives":[
				{
					"attributes":{
						"POSITION":28,
						"NORMAL":29,
						"TEXCOORD_0":30
					},
					"indices":31,
					"material":2
				}
			]
		},
		{
			"name":"Cube.009",
			"primitives":[
				{
					"attributes":{
						"POSITION":32,
						"NORMAL":33,
						"TEXCOORD_0":34
					},
					"indices":35,
					"material":1
				}
			]
		},
		{
			"name":"Circle.001",
			"primitives":[
				{
					"attributes":{
						"POSITION":36,
						"NORMAL":37,
						"TEXCOORD_0":38
					},
					"indices":39,
					"material":1
				}
			]
		},
		{
			"name":"Cube.012",
			"primitives":[
				{
					"attributes":{
						"POSITION":40,
						"NORMAL":41,
						"TEXCOORD_0":42
					},
					"indices":43,
					"material":1
				}
			]
		},
		{
			"name":"Circle.003",
			"primitives":[
				{
					"attributes":{
						"POSITION":44,
						"NORMAL":45,
						"TEXCOORD_0":46
					},
					"indices":47,
					"material":1
				}
			]
		},
		{
			"name":"Plane",
			"primitives":[
				{
					"attributes":{
						"POSITION":48,
						"NORMAL":49,
						"TEXCOORD_0":50
					},
					"indices":51,
					"material":3
				}
			]
		},
		{
			"name":"Plane.003",
			"primitives":[
				{
					"attributes":{
						"POSITION":52,
						"NORMAL":53,
						"TEXCOORD_0":54
					},
					"indices":51,
					"material":3
				}
			]
		},
		{
			"name":"Plane.004",
			"primitives":[
				{
					"attributes":{
						"POSITION":55,
						"NORMAL":56,
						"TEXCOORD_0":57
					},
					"indices":58,
					"material":1
				}
			]
		},
		{
			"name":"Circle.006",
			"primitives":[
				{
					"attributes":{
						"POSITION":59,
						"NORMAL":60,
						"TEXCOORD_0":61
					},
					"indices":62,
					"material":1
				}
			]
		},
		{
			"name":"Cube.016",
			"primitives":[
				{
					"attributes":{
						"POSITION":63,
						"NORMAL":64,
						"TEXCOORD_0":65
					},
					"indices":66,
					"material":1
				}
			]
		},
		{
			"name":"Circle.008",
			"primitives":[
				{
					"attributes":{
						"POSITION":67,
						"NORMAL":68,
						"TEXCOORD_0":69
					},
					"indices":70,
					"material":3
				}
			]
		},
		{
			"name":"Circle.011",
			"primitives":[
				{
					"attributes":{
						"POSITION":71,
						"NORMAL":72,
						"TEXCOORD_0":73
					},
					"indices":74,
					"material":1
				}
			]
		},
		{
			"name":"Cube.017",
			"primitives":[
				{
					"attributes":{
						"POSITION":75,
						"NORMAL":76,
						"TEXCOORD_0":77
					},
					"indices":78,
					"material":3
				}
			]
		},
		{
			"name":"Cube.015",
			"primitives":[
				{
					"attributes":{
						"POSITION":79,
						"NORMAL":80,
						"TEXCOORD_0":81
					},
					"indices":82,
					"material":1
				}
			]
		},
		{
			"name":"Plane.010",
			"primitives":[
				{
					"attributes":{
						"POSITION":83,
						"NORMAL":84,
						"TEXCOORD_0":85
					},
					"indices":86,
					"material":4
				}
			]
		},
		{
			"name":"Cube.018",
			"primitives":[
				{
					"attributes":{
						"POSITION":87,
						"NORMAL":88,
						"TEXCOORD_0":89
					},
					"indices":90,
					"material":4
				}
			]
		},
		{
			"name":"Circle.015",
			"primitives":[
				{
					"attributes":{
						"POSITION":91,
						"NORMAL":92,
						"TEXCOORD_0":93
					},
					"indices":94,
					"material":1
				}
			]
		},
		{
			"name":"Cube.021",
			"primitives":[
				{
					"attributes":{
						"POSITION":95,
						"NORMAL":96,
						"TEXCOORD_0":97
					},
					"indices":98,
					"material":1
				}
			]
		},
		{
			"name":"Circle.016",
			"primitives":[
				{
					"attributes":{
						"POSITION":99,
						"NORMAL":100,
						"TEXCOORD_0":101
					},
					"indices":102,
					"material":1
				}
			]
		},
		{
			"name":"Circle.017",
			"primitives":[
				{
					"attributes":{
						"POSITION":103,
						"NORMAL":104,
						"TEXCOORD_0":105
					},
					"indices":106,
					"material":1
				}
			]
		},
		{
			"name":"Circle.018",
			"primitives":[
				{
					"attributes":{
						"POSITION":107,
						"NORMAL":108,
						"TEXCOORD_0":109
					},
					"indices":110,
					"material":1
				}
			]
		},
		{
			"name":"Cube.035",
			"primitives":[
				{
					"attributes":{
						"POSITION":111,
						"NORMAL":112,
						"TEXCOORD_0":113,
						"COLOR_0":114,
						"COLOR_1":115
					},
					"indices":116,
					"material":1
				}
			]
		},
		{
			"name":"Cube.050",
			"primitives":[
				{
					"attributes":{
						"POSITION":117,
						"NORMAL":118,
						"TEXCOORD_0":119
					},
					"indices":120,
					"material":1
				}
			]
		},
		{
			"name":"Circle.039",
			"primitives":[
				{
					"attributes":{
						"POSITION":121,
						"NORMAL":122,
						"TEXCOORD_0":123
					},
					"indices":124,
					"material":1
				}
			]
		},
		{
			"name":"Circle.040",
			"primitives":[
				{
					"attributes":{
						"POSITION":125,
						"NORMAL":126,
						"TEXCOORD_0":127
					},
					"indices":128,
					"material":5
				}
			]
		},
		{
			"name":"Circle.041",
			"primitives":[
				{
					"attributes":{
						"POSITION":129,
						"NORMAL":130,
						"TEXCOORD_0":131
					},
					"indices":132,
					"material":6
				}
			]
		},
		{
			"name":"Circle.019",
			"primitives":[
				{
					"attributes":{
						"POSITION":133,
						"NORMAL":134,
						"TEXCOORD_0":135
					},
					"indices":136,
					"material":1
				}
			]
		},
		{
			"name":"Cube.027",
			"primitives":[
				{
					"attributes":{
						"POSITION":137,
						"NORMAL":138,
						"TEXCOORD_0":139
					},
					"indices":140,
					"material":1
				}
			]
		},
		{
			"name":"Cube.022",
			"primitives":[
				{
					"attributes":{
						"POSITION":141,
						"NORMAL":142,
						"TEXCOORD_0":143
					},
					"indices":144,
					"material":4
				}
			]
		},
		{
			"name":"Cube.023",
			"primitives":[
				{
					"attributes":{
						"POSITION":145,
						"NORMAL":146,
						"TEXCOORD_0":147
					},
					"indices":148,
					"material":4
				}
			]
		},
		{
			"name":"Cube.024",
			"primitives":[
				{
					"attributes":{
						"POSITION":149,
						"NORMAL":150,
						"TEXCOORD_0":151
					},
					"indices":152,
					"material":4
				}
			]
		},
		{
			"name":"Cube.025",
			"primitives":[
				{
					"attributes":{
						"POSITION":153,
						"NORMAL":154,
						"TEXCOORD_0":155
					},
					"indices":156,
					"material":7
				}
			]
		},
		{
			"name":"Cube.026",
			"primitives":[
				{
					"attributes":{
						"POSITION":157,
						"NORMAL":158,
						"TEXCOORD_0":159
					},
					"indices":160,
					"material":4
				}
			]
		},
		{
			"name":"Cube.014",
			"primitives":[
				{
					"attributes":{
						"POSITION":161,
						"NORMAL":162,
						"TEXCOORD_0":163
					},
					"indices":164,
					"material":8
				}
			]
		},
		{
			"name":"Circle.014",
			"primitives":[
				{
					"attributes":{
						"POSITION":165,
						"NORMAL":166,
						"TEXCOORD_0":167
					},
					"indices":168,
					"material":3
				}
			]
		},
		{
			"name":"Circle.026",
			"primitives":[
				{
					"attributes":{
						"POSITION":169,
						"NORMAL":170,
						"TEXCOORD_0":171
					},
					"indices":172,
					"material":9
				}
			]
		},
		{
			"name":"Cube.032",
			"primitives":[
				{
					"attributes":{
						"POSITION":173,
						"NORMAL":174,
						"TEXCOORD_0":175
					},
					"indices":176,
					"material":1
				}
			]
		},
		{
			"name":"Cube.031",
			"primitives":[
				{
					"attributes":{
						"POSITION":177,
						"NORMAL":178,
						"TEXCOORD_0":179
					},
					"indices":180,
					"material":4
				}
			]
		},
		{
			"name":"Circle.027",
			"primitives":[
				{
					"attributes":{
						"POSITION":181,
						"NORMAL":182,
						"TEXCOORD_0":183
					},
					"indices":184,
					"material":9
				}
			]
		},
		{
			"name":"Circle.028",
			"primitives":[
				{
					"attributes":{
						"POSITION":185,
						"NORMAL":186,
						"TEXCOORD_0":187
					},
					"indices":188,
					"material":4
				}
			]
		},
		{
			"name":"Cube.030",
			"primitives":[
				{
					"attributes":{
						"POSITION":189,
						"NORMAL":190,
						"TEXCOORD_0":191
					},
					"indices":192,
					"material":4
				}
			]
		},
		{
			"name":"Cube.011",
			"primitives":[
				{
					"attributes":{
						"POSITION":193,
						"NORMAL":194,
						"TEXCOORD_0":195
					},
					"indices":196,
					"material":1
				}
			]
		},
		{
			"name":"Cube.033",
			"primitives":[
				{
					"attributes":{
						"POSITION":197,
						"NORMAL":198,
						"TEXCOORD_0":199
					},
					"indices":200,
					"material":4
				}
			]
		},
		{
			"name":"Cube.051",
			"primitives":[
				{
					"attributes":{
						"POSITION":201,
						"NORMAL":202,
						"TEXCOORD_0":203
					},
					"indices":204,
					"material":10
				}
			]
		},
		{
			"name":"Cube.052",
			"primitives":[
				{
					"attributes":{
						"POSITION":205,
						"NORMAL":206,
						"TEXCOORD_0":207
					},
					"indices":204,
					"material":10
				}
			]
		},
		{
			"name":"Plane.001",
			"primitives":[
				{
					"attributes":{
						"POSITION":208,
						"NORMAL":209,
						"TEXCOORD_0":210
					},
					"indices":211,
					"material":9
				}
			]
		},
		{
			"name":"Plane.005",
			"primitives":[
				{
					"attributes":{
						"POSITION":212,
						"NORMAL":213,
						"TEXCOORD_0":214
					},
					"indices":215,
					"material":9
				}
			]
		},
		{
			"name":"Plane.009",
			"primitives":[
				{
					"attributes":{
						"POSITION":216,
						"NORMAL":217,
						"TEXCOORD_0":218
					},
					"indices":219,
					"material":9
				}
			]
		},
		{
			"name":"Plane.011",
			"primitives":[
				{
					"attributes":{
						"POSITION":220,
						"NORMAL":221,
						"TEXCOORD_0":222
					},
					"indices":223,
					"material":9
				}
			]
		},
		{
			"name":"Plane.013",
			"primitives":[
				{
					"attributes":{
						"POSITION":224,
						"NORMAL":225,
						"TEXCOORD_0":226
					},
					"indices":227,
					"material":9
				}
			]
		},
		{
			"name":"Plane.014",
			"primitives":[
				{
					"attributes":{
						"POSITION":228,
						"NORMAL":229,
						"TEXCOORD_0":230
					},
					"indices":231,
					"material":9
				}
			]
		},
		{
			"name":"Plane.015",
			"primitives":[
				{
					"attributes":{
						"POSITION":232,
						"NORMAL":233,
						"TEXCOORD_0":234
					},
					"indices":235,
					"material":9
				}
			]
		},
		{
			"name":"Plane.017",
			"primitives":[
				{
					"attributes":{
						"POSITION":236,
						"NORMAL":237,
						"TEXCOORD_0":238
					},
					"indices":239,
					"material":9
				}
			]
		},
		{
			"name":"Plane.018",
			"primitives":[
				{
					"attributes":{
						"POSITION":240,
						"NORMAL":241,
						"TEXCOORD_0":242
					},
					"indices":243,
					"material":9
				}
			]
		},
		{
			"name":"Plane.019",
			"primitives":[
				{
					"attributes":{
						"POSITION":244,
						"NORMAL":245,
						"TEXCOORD_0":246
					},
					"indices":247,
					"material":9
				}
			]
		},
		{
			"name":"Plane.020",
			"primitives":[
				{
					"attributes":{
						"POSITION":248,
						"NORMAL":249,
						"TEXCOORD_0":250
					},
					"indices":251,
					"material":9
				}
			]
		},
		{
			"name":"Plane.007",
			"primitives":[
				{
					"attributes":{
						"POSITION":252,
						"NORMAL":253,
						"TEXCOORD_0":254
					},
					"indices":255,
					"material":9
				}
			]
		}
	],
	"textures":[
		{
			"sampler":0,
			"source":0
		}
	],
	"images":[
		{
			"mimeType":"image/jpeg",
			"name":"skin1",
			"uri":"skin1.jpg"
		}
	],
	"accessors":[
		{
			"bufferView":0,
			"componentType":5126,
			"count":322,
			"max":[
				0.27913329005241394,
				0.29872840642929077,
				0.17801788449287415
			],
			"min":[
				-0.27913329005241394,
				-0.20534062385559082,
				-2.1745972633361816
			],
			"type":"VEC3"
		},
		{
			"bufferView":1,
			"componentType":5126,
			"count":322,
			"type":"VEC3"
		},
		{
			"bufferView":2,
			"componentType":5126,
			"count":322,
			"type":"VEC2"
		},
		{
			"bufferView":3,
			"componentType":5123,
			"count":1920,
			"type":"SCALAR"
		},
		{
			"bufferView":4,
			"componentType":5126,
			"count":40,
			"max":[
				1.1248799562454224,
				0.0650375634431839,
				0.03401443734765053
			],
			"min":[
				-1.0205914974212646,
				-0.0519108921289444,
				-0.3595210611820221
			],
			"type":"VEC3"
		},
		{
			"bufferView":5,
			"componentType":5126,
			"count":40,
			"type":"VEC3"
		},
		{
			"bufferView":6,
			"componentType":5126,
			"count":40,
			"type":"VEC2"
		},
		{
			"bufferView":7,
			"componentType":5123,
			"count":60,
			"type":"SCALAR"
		},
		{
			"bufferView":8,
			"componentType":5126,
			"count":40,
			"max":[
				0.11871077865362167,
				0.6174452304840088,
				0.4502648711204529
			],
			"min":[
				-0.11871077865362167,
				-0.6780387163162231,
				-0.6244942545890808
			],
			"type":"VEC3"
		},
		{
			"bufferView":9,
			"componentType":5126,
			"count":40,
			"type":"VEC3"
		},
		{
			"bufferView":10,
			"componentType":5126,
			"count":40,
			"type":"VEC2"
		},
		{
			"bufferView":11,
			"componentType":5123,
			"count":60,
			"type":"SCALAR"
		},
		{
			"bufferView":12,
			"componentType":5126,
			"count":40,
			"max":[
				1.383303165435791,
				0.0022385853808373213,
				0.4816272556781769
			],
			"min":[
				-2.8142011165618896,
				-0.22938571870326996,
				-1.3112449645996094
			],
			"type":"VEC3"
		},
		{
			"bufferView":13,
			"componentType":5126,
			"count":40,
			"type":"VEC3"
		},
		{
			"bufferView":14,
			"componentType":5126,
			"count":40,
			"type":"VEC2"
		},
		{
			"bufferView":15,
			"componentType":5123,
			"count":156,
			"type":"SCALAR"
		},
		{
			"bufferView":16,
			"componentType":5126,
			"count":40,
			"max":[
				0.05714163929224014,
				0.19546742737293243,
				0.5326587557792664
			],
			"min":[
				-0.7759373188018799,
				-0.2710464894771576,
				-0.45726582407951355
			],
			"type":"VEC3"
		},
		{
			"bufferView":17,
			"componentType":5126,
			"count":40,
			"type":"VEC3"
		},
		{
			"bufferView":18,
			"componentType":5126,
			"count":40,
			"type":"VEC2"
		},
		{
			"bufferView":19,
			"componentType":5123,
			"count":60,
			"type":"SCALAR"
		},
		{
			"bufferView":20,
			"componentType":5126,
			"count":120,
			"max":[
				0.041744768619537354,
				0.15886493027210236,
				1.7465280294418335
			],
			"min":[
				-5.510781764984131,
				-0.16764195263385773,
				-0.8544780611991882
			],
			"type":"VEC3"
		},
		{
			"bufferView":21,
			"componentType":5126,
			"count":120,
			"type":"VEC3"
		},
		{
			"bufferView":22,
			"componentType":5126,
			"count":120,
			"type":"VEC2"
		},
		{
			"bufferView":23,
			"componentType":5123,
			"count":468,
			"type":"SCALAR"
		},
		{
			"bufferView":24,
			"componentType":5126,
			"count":12,
			"max":[
				0.010249704122543335,
				0.1993500143289566,
				0.08643656224012375
			],
			"min":[
				-0.010249704122543335,
				-0.1993499994277954,
				-0.07720238715410233
			],
			"type":"VEC3"
		},
		{
			"bufferView":25,
			"componentType":5126,
			"count":12,
			"type":"VEC3"
		},
		{
			"bufferView":26,
			"componentType":5126,
			"count":12,
			"type":"VEC2"
		},
		{
			"bufferView":27,
			"componentType":5123,
			"count":30,
			"type":"SCALAR"
		},
		{
			"bufferView":28,
			"componentType":5126,
			"count":84,
			"max":[
				0.4076113998889923,
				0.4180939197540283,
				0.7863702178001404
			],
			"min":[
				-0.4076113998889923,
				-0.4180939197540283,
				-0.1305033564567566
			],
			"type":"VEC3"
		},
		{
			"bufferView":29,
			"componentType":5126,
			"count":84,
			"type":"VEC3"
		},
		{
			"bufferView":30,
			"componentType":5126,
			"count":84,
			"type":"VEC2"
		},
		{
			"bufferView":31,
			"componentType":5123,
			"count":372,
			"type":"SCALAR"
		},
		{
			"bufferView":32,
			"componentType":5126,
			"count":50,
			"max":[
				3.7622599601745605,
				0.28320589661598206,
				0.5968984365463257
			],
			"min":[
				-3.7622599601745605,
				0.17333167791366577,
				-1.3115087747573853
			],
			"type":"VEC3"
		},
		{
			"bufferView":33,
			"componentType":5126,
			"count":50,
			"type":"VEC3"
		},
		{
			"bufferView":34,
			"componentType":5126,
			"count":50,
			"type":"VEC2"
		},
		{
			"bufferView":35,
			"componentType":5123,
			"count":78,
			"type":"SCALAR"
		},
		{
			"bufferView":36,
			"componentType":5126,
			"count":39,
			"max":[
				0.02305154874920845,
				0.023407157510519028,
				0.14530859887599945
			],
			"min":[
				-0.02305154874920845,
				-0.021995533257722855,
				-0.1286446899175644
			],
			"type":"VEC3"
		},
		{
			"bufferView":37,
			"componentType":5126,
			"count":39,
			"type":"VEC3"
		},
		{
			"bufferView":38,
			"componentType":5126,
			"count":39,
			"type":"VEC2"
		},
		{
			"bufferView":39,
			"componentType":5123,
			"count":135,
			"type":"SCALAR"
		},
		{
			"bufferView":40,
			"componentType":5126,
			"count":424,
			"max":[
				0.059326354414224625,
				0.051336295902729034,
				0.9158424139022827
			],
			"min":[
				-7.7126312255859375,
				-0.051336146891117096,
				-0.9158424139022827
			],
			"type":"VEC3"
		},
		{
			"bufferView":41,
			"componentType":5126,
			"count":424,
			"type":"VEC3"
		},
		{
			"bufferView":42,
			"componentType":5126,
			"count":424,
			"type":"VEC2"
		},
		{
			"bufferView":43,
			"componentType":5123,
			"count":672,
			"type":"SCALAR"
		},
		{
			"bufferView":44,
			"componentType":5126,
			"count":440,
			"max":[
				0.30332493782043457,
				0.38023683428764343,
				0.8375095725059509
			],
			"min":[
				-2.9904773235321045,
				-0.2657792568206787,
				-1.7683709859848022
			],
			"type":"VEC3"
		},
		{
			"bufferView":45,
			"componentType":5126,
			"count":440,
			"type":"VEC3"
		},
		{
			"bufferView":46,
			"componentType":5126,
			"count":440,
			"type":"VEC2"
		},
		{
			"bufferView":47,
			"componentType":5123,
			"count":2304,
			"type":"SCALAR"
		},
		{
			"bufferView":48,
			"componentType":5126,
			"count":38,
			"max":[
				0.030123461037874222,
				-0.15796910226345062,
				0.09132462739944458
			],
			"min":[
				-0.030123461037874222,
				-0.34965774416923523,
				-0.10808439552783966
			],
			"type":"VEC3"
		},
		{
			"bufferView":49,
			"componentType":5126,
			"count":38,
			"type":"VEC3"
		},
		{
			"bufferView":50,
			"componentType":5126,
			"count":38,
			"type":"VEC2"
		},
		{
			"bufferView":51,
			"componentType":5123,
			"count":156,
			"type":"SCALAR"
		},
		{
			"bufferView":52,
			"componentType":5126,
			"count":38,
			"max":[
				0.04146992787718773,
				-0.1836666315793991,
				0.08071929961442947
			],
			"min":[
				-0.04146992787718773,
				-0.32539060711860657,
				-0.04975506663322449
			],
			"type":"VEC3"
		},
		{
			"bufferView":53,
			"componentType":5126,
			"count":38,
			"type":"VEC3"
		},
		{
			"bufferView":54,
			"componentType":5126,
			"count":38,
			"type":"VEC2"
		},
		{
			"bufferView":55,
			"componentType":5126,
			"count":60,
			"max":[
				0.2973191440105438,
				0.047250475734472275,
				0.8206023573875427
			],
			"min":[
				-0.023965107277035713,
				-0.34556853771209717,
				-0.2276601642370224
			],
			"type":"VEC3"
		},
		{
			"bufferView":56,
			"componentType":5126,
			"count":60,
			"type":"VEC3"
		},
		{
			"bufferView":57,
			"componentType":5126,
			"count":60,
			"type":"VEC2"
		},
		{
			"bufferView":58,
			"componentType":5123,
			"count":210,
			"type":"SCALAR"
		},
		{
			"bufferView":59,
			"componentType":5126,
			"count":756,
			"max":[
				0.16415946185588837,
				0.28546756505966187,
				2.1756157875061035
			],
			"min":[
				-5.634603023529053,
				-0.1292153298854828,
				-1.6515809297561646
			],
			"type":"VEC3"
		},
		{
			"bufferView":60,
			"componentType":5126,
			"count":756,
			"type":"VEC3"
		},
		{
			"bufferView":61,
			"componentType":5126,
			"count":756,
			"type":"VEC2"
		},
		{
			"bufferView":62,
			"componentType":5123,
			"count":2172,
			"type":"SCALAR"
		},
		{
			"bufferView":63,
			"componentType":5126,
			"count":342,
			"max":[
				0.2771686613559723,
				0.9637976288795471,
				3.1048364639282227
			],
			"min":[
				-0.2771686613559723,
				0.6106840372085571,
				2.938601016998291
			],
			"type":"VEC3"
		},
		{
			"bufferView":64,
			"componentType":5126,
			"count":342,
			"type":"VEC3"
		},
		{
			"bufferView":65,
			"componentType":5126,
			"count":342,
			"type":"VEC2"
		},
		{
			"bufferView":66,
			"componentType":5123,
			"count":960,
			"type":"SCALAR"
		},
		{
			"bufferView":67,
			"componentType":5126,
			"count":142,
			"max":[
				0.16476565599441528,
				0.021907588467001915,
				0.0663648396730423
			],
			"min":[
				-0.16477173566818237,
				-0.04382990300655365,
				-0.1509266197681427
			],
			"type":"VEC3"
		},
		{
			"bufferView":68,
			"componentType":5126,
			"count":142,
			"type":"VEC3"
		},
		{
			"bufferView":69,
			"componentType":5126,
			"count":142,
			"type":"VEC2"
		},
		{
			"bufferView":70,
			"componentType":5123,
			"count":570,
			"type":"SCALAR"
		},
		{
			"bufferView":71,
			"componentType":5126,
			"count":74,
			"max":[
				0.04844428971409798,
				0.05235590040683746,
				0.3264950215816498
			],
			"min":[
				-0.04844428971409798,
				-0.0488312728703022,
				-0.06686630100011826
			],
			"type":"VEC3"
		},
		{
			"bufferView":72,
			"componentType":5126,
			"count":74,
			"type":"VEC3"
		},
		{
			"bufferView":73,
			"componentType":5126,
			"count":74,
			"type":"VEC2"
		},
		{
			"bufferView":74,
			"componentType":5123,
			"count":297,
			"type":"SCALAR"
		},
		{
			"bufferView":75,
			"componentType":5126,
			"count":18,
			"max":[
				0.05604942515492439,
				0.9467763900756836,
				-4.8165740966796875
			],
			"min":[
				-0.05604942515492439,
				0.7098060250282288,
				-4.84192419052124
			],
			"type":"VEC3"
		},
		{
			"bufferView":76,
			"componentType":5126,
			"count":18,
			"type":"VEC3"
		},
		{
			"bufferView":77,
			"componentType":5126,
			"count":18,
			"type":"VEC2"
		},
		{
			"bufferView":78,
			"componentType":5123,
			"count":54,
			"type":"SCALAR"
		},
		{
			"bufferView":79,
			"componentType":5126,
			"count":61,
			"max":[
				0.5843531489372253,
				0.409356027841568,
				2.0087058544158936
			],
			"min":[
				0.4807969331741333,
				0.3163667917251587,
				1.322359323501587
			],
			"type":"VEC3"
		},
		{
			"bufferView":80,
			"componentType":5126,
			"count":61,
			"type":"VEC3"
		},
		{
			"bufferView":81,
			"componentType":5126,
			"count":61,
			"type":"VEC2"
		},
		{
			"bufferView":82,
			"componentType":5123,
			"count":252,
			"type":"SCALAR"
		},
		{
			"bufferView":83,
			"componentType":5126,
			"count":432,
			"max":[
				0.10544881224632263,
				0.0632278248667717,
				1.1047041416168213
			],
			"min":[
				-5.528370380401611,
				-0.04879432171583176,
				-0.07580363750457764
			],
			"type":"VEC3"
		},
		{
			"bufferView":84,
			"componentType":5126,
			"count":432,
			"type":"VEC3"
		},
		{
			"bufferView":85,
			"componentType":5126,
			"count":432,
			"type":"VEC2"
		},
		{
			"bufferView":86,
			"componentType":5123,
			"count":1152,
			"type":"SCALAR"
		},
		{
			"bufferView":87,
			"componentType":5126,
			"count":240,
			"max":[
				0.045756369829177856,
				0.050793688744306564,
				1.034224271774292
			],
			"min":[
				-5.514360427856445,
				-0.055240608751773834,
				-0.2953665554523468
			],
			"type":"VEC3"
		},
		{
			"bufferView":88,
			"componentType":5126,
			"count":240,
			"type":"VEC3"
		},
		{
			"bufferView":89,
			"componentType":5126,
			"count":240,
			"type":"VEC2"
		},
		{
			"bufferView":90,
			"componentType":5123,
			"count":648,
			"type":"SCALAR"
		},
		{
			"bufferView":91,
			"componentType":5126,
			"count":64,
			"max":[
				0.24673564732074738,
				0.3570539951324463,
				-1.6177334785461426
			],
			"min":[
				-0.24673527479171753,
				0.19150066375732422,
				-2.580761432647705
			],
			"type":"VEC3"
		},
		{
			"bufferView":92,
			"componentType":5126,
			"count":64,
			"type":"VEC3"
		},
		{
			"bufferView":93,
			"componentType":5126,
			"count":64,
			"type":"VEC2"
		},
		{
			"bufferView":94,
			"componentType":5123,
			"count":264,
			"type":"SCALAR"
		},
		{
			"bufferView":95,
			"componentType":5126,
			"count":80,
			"max":[
				0.26244282722473145,
				0.6671914458274841,
				3.7861335277557373
			],
			"min":[
				-0.26244282722473145,
				0.5714612007141113,
				2.860490083694458
			],
			"type":"VEC3"
		},
		{
			"bufferView":96,
			"componentType":5126,
			"count":80,
			"type":"VEC3"
		},
		{
			"bufferView":97,
			"componentType":5126,
			"count":80,
			"type":"VEC2"
		},
		{
			"bufferView":98,
			"componentType":5123,
			"count":228,
			"type":"SCALAR"
		},
		{
			"bufferView":99,
			"componentType":5126,
			"count":40,
			"max":[
				0.28494560718536377,
				0.23628976941108704,
				-0.8812716603279114
			],
			"min":[
				-0.2849451005458832,
				0.08750343322753906,
				-1.628717064857483
			],
			"type":"VEC3"
		},
		{
			"bufferView":100,
			"componentType":5126,
			"count":40,
			"type":"VEC3"
		},
		{
			"bufferView":101,
			"componentType":5126,
			"count":40,
			"type":"VEC2"
		},
		{
			"bufferView":102,
			"componentType":5123,
			"count":144,
			"type":"SCALAR"
		},
		{
			"bufferView":103,
			"componentType":5126,
			"count":74,
			"max":[
				0.042058106511831284,
				0.10286662727594376,
				0.12276958674192429
			],
			"min":[
				-0.042058106511831284,
				-0.028150223195552826,
				-0.11488298326730728
			],
			"type":"VEC3"
		},
		{
			"bufferView":104,
			"componentType":5126,
			"count":74,
			"type":"VEC3"
		},
		{
			"bufferView":105,
			"componentType":5126,
			"count":74,
			"type":"VEC2"
		},
		{
			"bufferView":106,
			"componentType":5123,
			"count":327,
			"type":"SCALAR"
		},
		{
			"bufferView":107,
			"componentType":5126,
			"count":39,
			"max":[
				0.03483663871884346,
				0.035374049097299576,
				0.2121795117855072
			],
			"min":[
				-0.03483663871884346,
				-0.03324073180556297,
				-0.066156305372715
			],
			"type":"VEC3"
		},
		{
			"bufferView":108,
			"componentType":5126,
			"count":39,
			"type":"VEC3"
		},
		{
			"bufferView":109,
			"componentType":5126,
			"count":39,
			"type":"VEC2"
		},
		{
			"bufferView":110,
			"componentType":5123,
			"count":156,
			"type":"SCALAR"
		},
		{
			"bufferView":111,
			"componentType":5126,
			"count":1325,
			"max":[
				3.7617456912994385,
				2.345128297805786,
				5.754279136657715
			],
			"min":[
				-3.7617456912994385,
				-0.49717772006988525,
				-5.047785758972168
			],
			"type":"VEC3"
		},
		{
			"bufferView":112,
			"componentType":5126,
			"count":1325,
			"type":"VEC3"
		},
		{
			"bufferView":113,
			"componentType":5126,
			"count":1325,
			"type":"VEC2"
		},
		{
			"bufferView":114,
			"componentType":5121,
			"count":1325,
			"normalized":true,
			"type":"VEC4"
		},
		{
			"bufferView":115,
			"componentType":5123,
			"count":1325,
			"normalized":true,
			"type":"VEC4"
		},
		{
			"bufferView":116,
			"componentType":5123,
			"count":5817,
			"type":"SCALAR"
		},
		{
			"bufferView":117,
			"componentType":5126,
			"count":336,
			"max":[
				0.234178826212883,
				1.015343189239502,
				2.1611053943634033
			],
			"min":[
				-0.234178826212883,
				0.6987367272377014,
				1.9831129312515259
			],
			"type":"VEC3"
		},
		{
			"bufferView":118,
			"componentType":5126,
			"count":336,
			"type":"VEC3"
		},
		{
			"bufferView":119,
			"componentType":5126,
			"count":336,
			"type":"VEC2"
		},
		{
			"bufferView":120,
			"componentType":5123,
			"count":960,
			"type":"SCALAR"
		},
		{
			"bufferView":121,
			"componentType":5126,
			"count":206,
			"max":[
				0.2279432862997055,
				0.06560874730348587,
				0.1915440410375595
			],
			"min":[
				-0.891610324382782,
				-0.06984857469797134,
				-0.20194576680660248
			],
			"type":"VEC3"
		},
		{
			"bufferView":122,
			"componentType":5126,
			"count":206,
			"type":"VEC3"
		},
		{
			"bufferView":123,
			"componentType":5126,
			"count":206,
			"type":"VEC2"
		},
		{
			"bufferView":124,
			"componentType":5123,
			"count":1092,
			"type":"SCALAR"
		},
		{
			"bufferView":125,
			"componentType":5126,
			"count":11,
			"max":[
				0.2279432862997055,
				0.01426326110959053,
				0.008803143166005611
			],
			"min":[
				0.21717053651809692,
				-0.010352893732488155,
				-0.05719242990016937
			],
			"type":"VEC3"
		},
		{
			"bufferView":126,
			"componentType":5126,
			"count":11,
			"type":"VEC3"
		},
		{
			"bufferView":127,
			"componentType":5126,
			"count":11,
			"type":"VEC2"
		},
		{
			"bufferView":128,
			"componentType":5123,
			"count":36,
			"type":"SCALAR"
		},
		{
			"bufferView":129,
			"componentType":5126,
			"count":11,
			"max":[
				-0.8808375000953674,
				0.014263266697525978,
				0.008803409524261951
			],
			"min":[
				-0.8916102647781372,
				-0.010352886281907558,
				-0.05719216167926788
			],
			"type":"VEC3"
		},
		{
			"bufferView":130,
			"componentType":5126,
			"count":11,
			"type":"VEC3"
		},
		{
			"bufferView":131,
			"componentType":5126,
			"count":11,
			"type":"VEC2"
		},
		{
			"bufferView":132,
			"componentType":5123,
			"count":36,
			"type":"SCALAR"
		},
		{
			"bufferView":133,
			"componentType":5126,
			"count":264,
			"max":[
				0.011087575927376747,
				0.01137271337211132,
				7.166401587710425e-07
			],
			"min":[
				-7.10853385925293,
				-0.015910692512989044,
				-0.15958645939826965
			],
			"type":"VEC3"
		},
		{
			"bufferView":134,
			"componentType":5126,
			"count":264,
			"type":"VEC3"
		},
		{
			"bufferView":135,
			"componentType":5126,
			"count":264,
			"type":"VEC2"
		},
		{
			"bufferView":136,
			"componentType":5123,
			"count":882,
			"type":"SCALAR"
		},
		{
			"bufferView":137,
			"componentType":5126,
			"count":40,
			"max":[
				-2.4819860458374023,
				0.06503754109144211,
				0.0340142622590065
			],
			"min":[
				-4.627457141876221,
				-0.05191091448068619,
				-0.3595212399959564
			],
			"type":"VEC3"
		},
		{
			"bufferView":138,
			"componentType":5126,
			"count":40,
			"type":"VEC3"
		},
		{
			"bufferView":139,
			"componentType":5126,
			"count":40,
			"type":"VEC2"
		},
		{
			"bufferView":140,
			"componentType":5123,
			"count":60,
			"type":"SCALAR"
		},
		{
			"bufferView":141,
			"componentType":5126,
			"count":421,
			"max":[
				0.31783750653266907,
				0.4694986641407013,
				0.9423760175704956
			],
			"min":[
				-0.31783750653266907,
				-0.10713590681552887,
				-1.5040087699890137
			],
			"type":"VEC3"
		},
		{
			"bufferView":142,
			"componentType":5126,
			"count":421,
			"type":"VEC3"
		},
		{
			"bufferView":143,
			"componentType":5126,
			"count":421,
			"type":"VEC2"
		},
		{
			"bufferView":144,
			"componentType":5123,
			"count":669,
			"type":"SCALAR"
		},
		{
			"bufferView":145,
			"componentType":5126,
			"count":202,
			"max":[
				0.24316394329071045,
				0.16729871928691864,
				0.7392083406448364
			],
			"min":[
				-0.24316394329071045,
				-0.4809047281742096,
				0.011340144090354443
			],
			"type":"VEC3"
		},
		{
			"bufferView":146,
			"componentType":5126,
			"count":202,
			"type":"VEC3"
		},
		{
			"bufferView":147,
			"componentType":5126,
			"count":202,
			"type":"VEC2"
		},
		{
			"bufferView":148,
			"componentType":5123,
			"count":318,
			"type":"SCALAR"
		},
		{
			"bufferView":149,
			"componentType":5126,
			"count":168,
			"max":[
				0.002430484164506197,
				0.12779396772384644,
				0.02887750044465065
			],
			"min":[
				-0.09450182318687439,
				-0.02019294537603855,
				-0.06997187435626984
			],
			"type":"VEC3"
		},
		{
			"bufferView":150,
			"componentType":5126,
			"count":168,
			"type":"VEC3"
		},
		{
			"bufferView":151,
			"componentType":5126,
			"count":168,
			"type":"VEC2"
		},
		{
			"bufferView":152,
			"componentType":5123,
			"count":252,
			"type":"SCALAR"
		},
		{
			"bufferView":153,
			"componentType":5126,
			"count":56,
			"max":[
				0.04676312208175659,
				0.060780443251132965,
				0.027092786505818367
			],
			"min":[
				-0.04676312208175659,
				-0.061426252126693726,
				-0.027401788160204887
			],
			"type":"VEC3"
		},
		{
			"bufferView":154,
			"componentType":5126,
			"count":56,
			"type":"VEC3"
		},
		{
			"bufferView":155,
			"componentType":5126,
			"count":56,
			"type":"VEC2"
		},
		{
			"bufferView":156,
			"componentType":5123,
			"count":84,
			"type":"SCALAR"
		},
		{
			"bufferView":157,
			"componentType":5126,
			"count":48,
			"max":[
				0.03906485438346863,
				0.09550221264362335,
				0.04530318081378937
			],
			"min":[
				-0.12806758284568787,
				-0.09550222009420395,
				-0.04530318081378937
			],
			"type":"VEC3"
		},
		{
			"bufferView":158,
			"componentType":5126,
			"count":48,
			"type":"VEC3"
		},
		{
			"bufferView":159,
			"componentType":5126,
			"count":48,
			"type":"VEC2"
		},
		{
			"bufferView":160,
			"componentType":5123,
			"count":72,
			"type":"SCALAR"
		},
		{
			"bufferView":161,
			"componentType":5126,
			"count":4,
			"max":[
				0.042311109602451324,
				0.0029806571546941996,
				0.030768705531954765
			],
			"min":[
				-0.042311109602451324,
				-0.00391116738319397,
				-0.023541508242487907
			],
			"type":"VEC3"
		},
		{
			"bufferView":162,
			"componentType":5126,
			"count":4,
			"type":"VEC3"
		},
		{
			"bufferView":163,
			"componentType":5126,
			"count":4,
			"type":"VEC2"
		},
		{
			"bufferView":164,
			"componentType":5123,
			"count":6,
			"type":"SCALAR"
		},
		{
			"bufferView":165,
			"componentType":5126,
			"count":70,
			"max":[
				0.019348060712218285,
				0.1824544221162796,
				0.07260763645172119
			],
			"min":[
				-0.020057855173945427,
				-0.15688985586166382,
				-0.07552813738584518
			],
			"type":"VEC3"
		},
		{
			"bufferView":166,
			"componentType":5126,
			"count":70,
			"type":"VEC3"
		},
		{
			"bufferView":167,
			"componentType":5126,
			"count":70,
			"type":"VEC2"
		},
		{
			"bufferView":168,
			"componentType":5123,
			"count":240,
			"type":"SCALAR"
		},
		{
			"bufferView":169,
			"componentType":5126,
			"count":20,
			"max":[
				0.009861955419182777,
				0.0036170328967273235,
				0.07880014181137085
			],
			"min":[
				-0.009861961007118225,
				-0.20662356913089752,
				-0.010797898285090923
			],
			"type":"VEC3"
		},
		{
			"bufferView":170,
			"componentType":5126,
			"count":20,
			"type":"VEC3"
		},
		{
			"bufferView":171,
			"componentType":5126,
			"count":20,
			"type":"VEC2"
		},
		{
			"bufferView":172,
			"componentType":5123,
			"count":48,
			"type":"SCALAR"
		},
		{
			"bufferView":173,
			"componentType":5126,
			"count":1206,
			"max":[
				0.1370387077331543,
				0.041039638221263885,
				-0.0012775431387126446
			],
			"min":[
				-1.311131477355957,
				-0.05208083987236023,
				-0.7661540508270264
			],
			"type":"VEC3"
		},
		{
			"bufferView":174,
			"componentType":5126,
			"count":1206,
			"type":"VEC3"
		},
		{
			"bufferView":175,
			"componentType":5126,
			"count":1206,
			"type":"VEC2"
		},
		{
			"bufferView":176,
			"componentType":5123,
			"count":2226,
			"type":"SCALAR"
		},
		{
			"bufferView":177,
			"componentType":5126,
			"count":308,
			"max":[
				-0.08632414042949677,
				0.018420517444610596,
				0.19391877949237823
			],
			"min":[
				-1.3729174137115479,
				-0.015222164802253246,
				0.004931651055812836
			],
			"type":"VEC3"
		},
		{
			"bufferView":178,
			"componentType":5126,
			"count":308,
			"type":"VEC3"
		},
		{
			"bufferView":179,
			"componentType":5126,
			"count":308,
			"type":"VEC2"
		},
		{
			"bufferView":180,
			"componentType":5123,
			"count":684,
			"type":"SCALAR"
		},
		{
			"bufferView":181,
			"componentType":5126,
			"count":36,
			"max":[
				0.019556408748030663,
				0.0198581013828516,
				0.15847747027873993
			],
			"min":[
				-1.2045892477035522,
				-0.01866050809621811,
				-0.1907442957162857
			],
			"type":"VEC3"
		},
		{
			"bufferView":182,
			"componentType":5126,
			"count":36,
			"type":"VEC3"
		},
		{
			"bufferView":183,
			"componentType":5126,
			"count":36,
			"type":"VEC2"
		},
		{
			"bufferView":184,
			"componentType":5123,
			"count":108,
			"type":"SCALAR"
		},
		{
			"bufferView":185,
			"componentType":5126,
			"count":54,
			"max":[
				0.03451135754585266,
				0.035043757408857346,
				6.3001537320417356e-09
			],
			"min":[
				-1.235339879989624,
				-0.03293036296963692,
				-0.0705590546131134
			],
			"type":"VEC3"
		},
		{
			"bufferView":186,
			"componentType":5126,
			"count":54,
			"type":"VEC3"
		},
		{
			"bufferView":187,
			"componentType":5126,
			"count":54,
			"type":"VEC2"
		},
		{
			"bufferView":188,
			"componentType":5123,
			"count":150,
			"type":"SCALAR"
		},
		{
			"bufferView":189,
			"componentType":5126,
			"count":176,
			"max":[
				0.028498588129878044,
				0.042980294674634933,
				0.0244442131370306
			],
			"min":[
				-1.2121714353561401,
				-0.042980294674634933,
				-0.0244442131370306
			],
			"type":"VEC3"
		},
		{
			"bufferView":190,
			"componentType":5126,
			"count":176,
			"type":"VEC3"
		},
		{
			"bufferView":191,
			"componentType":5126,
			"count":176,
			"type":"VEC2"
		},
		{
			"bufferView":192,
			"componentType":5123,
			"count":264,
			"type":"SCALAR"
		},
		{
			"bufferView":193,
			"componentType":5126,
			"count":1206,
			"max":[
				0.13825932145118713,
				1.6201776266098022,
				-1.0388554073870182e-05
			],
			"min":[
				-9.336860656738281,
				-0.04094405472278595,
				-0.7654886841773987
			],
			"type":"VEC3"
		},
		{
			"bufferView":194,
			"componentType":5126,
			"count":1206,
			"type":"VEC3"
		},
		{
			"bufferView":195,
			"componentType":5126,
			"count":1206,
			"type":"VEC2"
		},
		{
			"bufferView":196,
			"componentType":5123,
			"count":2226,
			"type":"SCALAR"
		},
		{
			"bufferView":197,
			"componentType":5126,
			"count":308,
			"max":[
				0.04449565336108208,
				0.01748046465218067,
				0.17604143917560577
			],
			"min":[
				-1.2353761196136475,
				-0.018111396580934525,
				-0.008186280727386475
			],
			"type":"VEC3"
		},
		{
			"bufferView":198,
			"componentType":5126,
			"count":308,
			"type":"VEC3"
		},
		{
			"bufferView":199,
			"componentType":5126,
			"count":308,
			"type":"VEC2"
		},
		{
			"bufferView":200,
			"componentType":5123,
			"count":684,
			"type":"SCALAR"
		},
		{
			"bufferView":201,
			"componentType":5126,
			"count":80,
			"max":[
				0.01935850828886032,
				0.014568089507520199,
				0.02810744009912014
			],
			"min":[
				-7.759271621704102,
				-0.01456809788942337,
				-0.028106721118092537
			],
			"type":"VEC3"
		},
		{
			"bufferView":202,
			"componentType":5126,
			"count":80,
			"type":"VEC3"
		},
		{
			"bufferView":203,
			"componentType":5126,
			"count":80,
			"type":"VEC2"
		},
		{
			"bufferView":204,
			"componentType":5123,
			"count":120,
			"type":"SCALAR"
		},
		{
			"bufferView":205,
			"componentType":5126,
			"count":80,
			"max":[
				0.01935850828886032,
				0.007802574895322323,
				0.028106724843382835
			],
			"min":[
				-0.01935933157801628,
				-0.007802656851708889,
				-0.028106721118092537
			],
			"type":"VEC3"
		},
		{
			"bufferView":206,
			"componentType":5126,
			"count":80,
			"type":"VEC3"
		},
		{
			"bufferView":207,
			"componentType":5126,
			"count":80,
			"type":"VEC2"
		},
		{
			"bufferView":208,
			"componentType":5126,
			"count":231,
			"max":[
				0.017365653067827225,
				0.11270096898078918,
				0.02847347781062126
			],
			"min":[
				-0.06844297796487808,
				-0.10612165927886963,
				-0.6019219160079956
			],
			"type":"VEC3"
		},
		{
			"bufferView":209,
			"componentType":5126,
			"count":231,
			"type":"VEC3"
		},
		{
			"bufferView":210,
			"componentType":5126,
			"count":231,
			"type":"VEC2"
		},
		{
			"bufferView":211,
			"componentType":5123,
			"count":369,
			"type":"SCALAR"
		},
		{
			"bufferView":212,
			"componentType":5126,
			"count":231,
			"max":[
				0.06844005733728409,
				0.10612165182828903,
				0.028474463149905205
			],
			"min":[
				-0.017364880070090294,
				-0.11270095407962799,
				-0.6019433736801147
			],
			"type":"VEC3"
		},
		{
			"bufferView":213,
			"componentType":5126,
			"count":231,
			"type":"VEC3"
		},
		{
			"bufferView":214,
			"componentType":5126,
			"count":231,
			"type":"VEC2"
		},
		{
			"bufferView":215,
			"componentType":5123,
			"count":369,
			"type":"SCALAR"
		},
		{
			"bufferView":216,
			"componentType":5126,
			"count":231,
			"max":[
				0.11270095407962799,
				0.06844598054885864,
				0.028472423553466797
			],
			"min":[
				-0.10612165927886963,
				-0.01736643724143505,
				-0.6018999814987183
			],
			"type":"VEC3"
		},
		{
			"bufferView":217,
			"componentType":5126,
			"count":231,
			"type":"VEC3"
		},
		{
			"bufferView":218,
			"componentType":5126,
			"count":231,
			"type":"VEC2"
		},
		{
			"bufferView":219,
			"componentType":5123,
			"count":369,
			"type":"SCALAR"
		},
		{
			"bufferView":220,
			"componentType":5126,
			"count":231,
			"max":[
				0.10612165927886963,
				0.01736411452293396,
				0.028475498780608177
			],
			"min":[
				-0.11270096153020859,
				-0.0684371143579483,
				-0.6019649505615234
			],
			"type":"VEC3"
		},
		{
			"bufferView":221,
			"componentType":5126,
			"count":231,
			"type":"VEC3"
		},
		{
			"bufferView":222,
			"componentType":5126,
			"count":231,
			"type":"VEC2"
		},
		{
			"bufferView":223,
			"componentType":5123,
			"count":369,
			"type":"SCALAR"
		},
		{
			"bufferView":224,
			"componentType":5126,
			"count":231,
			"max":[
				0.05463334918022156,
				0.11148474365472794,
				0.028472770005464554
			],
			"min":[
				-0.10607615113258362,
				-0.09994584321975708,
				-0.6019070148468018
			],
			"type":"VEC3"
		},
		{
			"bufferView":225,
			"componentType":5126,
			"count":231,
			"type":"VEC3"
		},
		{
			"bufferView":226,
			"componentType":5126,
			"count":231,
			"type":"VEC2"
		},
		{
			"bufferView":227,
			"componentType":5123,
			"count":369,
			"type":"SCALAR"
		},
		{
			"bufferView":228,
			"componentType":5126,
			"count":231,
			"max":[
				0.10607010126113892,
				0.09994494915008545,
				0.028475161641836166
			],
			"min":[
				-0.05463193356990814,
				-0.11148209869861603,
				-0.6019580960273743
			],
			"type":"VEC3"
		},
		{
			"bufferView":229,
			"componentType":5126,
			"count":231,
			"type":"VEC3"
		},
		{
			"bufferView":230,
			"componentType":5126,
			"count":231,
			"type":"VEC2"
		},
		{
			"bufferView":231,
			"componentType":5123,
			"count":369,
			"type":"SCALAR"
		},
		{
			"bufferView":232,
			"componentType":5126,
			"count":231,
			"max":[
				0.11148451268672943,
				0.10607582330703735,
				0.028472881764173508
			],
			"min":[
				-0.0999457985162735,
				-0.054633259773254395,
				-0.6019098162651062
			],
			"type":"VEC3"
		},
		{
			"bufferView":233,
			"componentType":5126,
			"count":231,
			"type":"VEC3"
		},
		{
			"bufferView":234,
			"componentType":5126,
			"count":231,
			"type":"VEC2"
		},
		{
			"bufferView":235,
			"componentType":5123,
			"count":369,
			"type":"SCALAR"
		},
		{
			"bufferView":236,
			"componentType":5126,
			"count":231,
			"max":[
				0.09994497895240784,
				0.0546320341527462,
				0.028475049883127213
			],
			"min":[
				-0.11148231476545334,
				-0.10607043653726578,
				-0.6019552946090698
			],
			"type":"VEC3"
		},
		{
			"bufferView":237,
			"componentType":5126,
			"count":231,
			"type":"VEC3"
		},
		{
			"bufferView":238,
			"componentType":5126,
			"count":231,
			"type":"VEC2"
		},
		{
			"bufferView":239,
			"componentType":5123,
			"count":369,
			"type":"SCALAR"
		},
		{
			"bufferView":240,
			"componentType":5126,
			"count":231,
			"max":[
				0.09493499994277954,
				0.09607771039009094,
				0.02847282402217388
			],
			"min":[
				-0.11528420448303223,
				-0.06752299517393112,
				-0.601908266544342
			],
			"type":"VEC3"
		},
		{
			"bufferView":241,
			"componentType":5126,
			"count":231,
			"type":"VEC3"
		},
		{
			"bufferView":242,
			"componentType":5126,
			"count":231,
			"type":"VEC2"
		},
		{
			"bufferView":243,
			"componentType":5123,
			"count":369,
			"type":"SCALAR"
		},
		{
			"bufferView":244,
			"componentType":5126,
			"count":231,
			"max":[
				0.115280881524086,
				0.06752152740955353,
				0.028475085273385048
			],
			"min":[
				-0.09493520855903625,
				-0.0960727408528328,
				-0.6019564270973206
			],
			"type":"VEC3"
		},
		{
			"bufferView":245,
			"componentType":5126,
			"count":231,
			"type":"VEC3"
		},
		{
			"bufferView":246,
			"componentType":5126,
			"count":231,
			"type":"VEC2"
		},
		{
			"bufferView":247,
			"componentType":5123,
			"count":369,
			"type":"SCALAR"
		},
		{
			"bufferView":248,
			"componentType":5126,
			"count":231,
			"max":[
				0.09607537090778351,
				0.11528269946575165,
				0.028473855927586555
			],
			"min":[
				-0.067522332072258,
				-0.09493502229452133,
				-0.6019304990768433
			],
			"type":"VEC3"
		},
		{
			"bufferView":249,
			"componentType":5126,
			"count":231,
			"type":"VEC3"
		},
		{
			"bufferView":250,
			"componentType":5126,
			"count":231,
			"type":"VEC2"
		},
		{
			"bufferView":251,
			"componentType":5123,
			"count":369,
			"type":"SCALAR"
		},
		{
			"bufferView":252,
			"componentType":5126,
			"count":231,
			"max":[
				0.0675220862030983,
				0.0949351117014885,
				0.02847409062087536
			],
			"min":[
				-0.09607498347759247,
				-0.11528228968381882,
				-0.6019349098205566
			],
			"type":"VEC3"
		},
		{
			"bufferView":253,
			"componentType":5126,
			"count":231,
			"type":"VEC3"
		},
		{
			"bufferView":254,
			"componentType":5126,
			"count":231,
			"type":"VEC2"
		},
		{
			"bufferView":255,
			"componentType":5123,
			"count":369,
			"type":"SCALAR"
		},
		{
			"bufferView":256,
			"componentType":5126,
			"count":2,
			"max":[
				0.8333333333333334
			],
			"min":[
				0
			],
			"type":"SCALAR"
		},
		{
			"bufferView":257,
			"componentType":5126,
			"count":2,
			"type":"VEC3"
		},
		{
			"bufferView":258,
			"componentType":5126,
			"count":21,
			"max":[
				0.8333333333333334
			],
			"min":[
				0
			],
			"type":"SCALAR"
		},
		{
			"bufferView":259,
			"componentType":5126,
			"count":21,
			"type":"VEC4"
		},
		{
			"bufferView":260,
			"componentType":5126,
			"count":2,
			"type":"VEC3"
		},
		{
			"bufferView":261,
			"componentType":5126,
			"count":21,
			"type":"VEC3"
		},
		{
			"bufferView":262,
			"componentType":5126,
			"count":21,
			"type":"VEC4"
		},
		{
			"bufferView":263,
			"componentType":5126,
			"count":2,
			"type":"VEC3"
		},
		{
			"bufferView":264,
			"componentType":5126,
			"count":21,
			"type":"VEC4"
		},
		{
			"bufferView":265,
			"componentType":5126,
			"count":21,
			"type":"VEC3"
		},
		{
			"bufferView":266,
			"componentType":5126,
			"count":21,
			"type":"VEC3"
		},
		{
			"bufferView":267,
			"componentType":5126,
			"count":21,
			"type":"VEC4"
		},
		{
			"bufferView":268,
			"componentType":5126,
			"count":2,
			"type":"VEC3"
		},
		{
			"bufferView":269,
			"componentType":5126,
			"count":21,
			"type":"VEC4"
		}
	],
	"bufferViews":[
		{
			"buffer":0,
			"byteLength":3864,
			"byteOffset":0,
			"target":34962
		},
		{
			"buffer":0,
			"byteLength":3864,
			"byteOffset":3864,
			"target":34962
		},
		{
			"buffer":0,
			"byteLength":2576,
			"byteOffset":7728,
			"target":34962
		},
		{
			"buffer":0,
			"byteLength":3840,
			"byteOffset":10304,
			"target":34963
		},
		{
			"buffer":0,
			"byteLength":480,
			"byteOffset":14144,
			"target":34962
		},
		{
			"buffer":0,
			"byteLength":480,
			"byteOffset":14624,
			"target":34962
		},
		{
			"buffer":0,
			"byteLength":320,
			"byteOffset":15104,
			"target":34962
		},
		{
			"buffer":0,
			"byteLength":120,
			"byteOffset":15424,
			"target":34963
		},
		{
			"buffer":0,
			"byteLength":480,
			"byteOffset":15544,
			"target":34962
		},
		{
			"buffer":0,
			"byteLength":480,
			"byteOffset":16024,
			"target":34962
		},
		{
			"buffer":0,
			"byteLength":320,
			"byteOffset":16504,
			"target":34962
		},
		{
			"buffer":0,
			"byteLength":120,
			"byteOffset":16824,
			"target":34963
		},
		{
			"buffer":0,
			"byteLength":480,
			"byteOffset":16944,
			"target":34962
		},
		{
			"buffer":0,
			"byteLength":480,
			"byteOffset":17424,
			"target":34962
		},
		{
			"buffer":0,
			"byteLength":320,
			"byteOffset":17904,
			"target":34962
		},
		{
			"buffer":0,
			"byteLength":312,
			"byteOffset":18224,
			"target":34963
		},
		{
			"buffer":0,
			"byteLength":480,
			"byteOffset":18536,
			"target":34962
		},
		{
			"buffer":0,
			"byteLength":480,
			"byteOffset":19016,
			"target":34962
		},
		{
			"buffer":0,
			"byteLength":320,
			"byteOffset":19496,
			"target":34962
		},
		{
			"buffer":0,
			"byteLength":120,
			"byteOffset":19816,
			"target":34963
		},
		{
			"buffer":0,
			"byteLength":1440,
			"byteOffset":19936,
			"target":34962
		},
		{
			"buffer":0,
			"byteLength":1440,
			"byteOffset":21376,
			"target":34962
		},
		{
			"buffer":0,
			"byteLength":960,
			"byteOffset":22816,
			"target":34962
		},
		{
			"buffer":0,
			"byteLength":936,
			"byteOffset":23776,
			"target":34963
		},
		{
			"buffer":0,
			"byteLength":144,
			"byteOffset":24712,
			"target":34962
		},
		{
			"buffer":0,
			"byteLength":144,
			"byteOffset":24856,
			"target":34962
		},
		{
			"buffer":0,
			"byteLength":96,
			"byteOffset":25000,
			"target":34962
		},
		{
			"buffer":0,
			"byteLength":60,
			"byteOffset":25096,
			"target":34963
		},
		{
			"buffer":0,
			"byteLength":1008,
			"byteOffset":25156,
			"target":34962
		},
		{
			"buffer":0,
			"byteLength":1008,
			"byteOffset":26164,
			"target":34962
		},
		{
			"buffer":0,
			"byteLength":672,
			"byteOffset":27172,
			"target":34962
		},
		{
			"buffer":0,
			"byteLength":744,
			"byteOffset":27844,
			"target":34963
		},
		{
			"buffer":0,
			"byteLength":600,
			"byteOffset":28588,
			"target":34962
		},
		{
			"buffer":0,
			"byteLength":600,
			"byteOffset":29188,
			"target":34962
		},
		{
			"buffer":0,
			"byteLength":400,
			"byteOffset":29788,
			"target":34962
		},
		{
			"buffer":0,
			"byteLength":156,
			"byteOffset":30188,
			"target":34963
		},
		{
			"buffer":0,
			"byteLength":468,
			"byteOffset":30344,
			"target":34962
		},
		{
			"buffer":0,
			"byteLength":468,
			"byteOffset":30812,
			"target":34962
		},
		{
			"buffer":0,
			"byteLength":312,
			"byteOffset":31280,
			"target":34962
		},
		{
			"buffer":0,
			"byteLength":270,
			"byteOffset":31592,
			"target":34963
		},
		{
			"buffer":0,
			"byteLength":5088,
			"byteOffset":31864,
			"target":34962
		},
		{
			"buffer":0,
			"byteLength":5088,
			"byteOffset":36952,
			"target":34962
		},
		{
			"buffer":0,
			"byteLength":3392,
			"byteOffset":42040,
			"target":34962
		},
		{
			"buffer":0,
			"byteLength":1344,
			"byteOffset":45432,
			"target":34963
		},
		{
			"buffer":0,
			"byteLength":5280,
			"byteOffset":46776,
			"target":34962
		},
		{
			"buffer":0,
			"byteLength":5280,
			"byteOffset":52056,
			"target":34962
		},
		{
			"buffer":0,
			"byteLength":3520,
			"byteOffset":57336,
			"target":34962
		},
		{
			"buffer":0,
			"byteLength":4608,
			"byteOffset":60856,
			"target":34963
		},
		{
			"buffer":0,
			"byteLength":456,
			"byteOffset":65464,
			"target":34962
		},
		{
			"buffer":0,
			"byteLength":456,
			"byteOffset":65920,
			"target":34962
		},
		{
			"buffer":0,
			"byteLength":304,
			"byteOffset":66376,
			"target":34962
		},
		{
			"buffer":0,
			"byteLength":312,
			"byteOffset":66680,
			"target":34963
		},
		{
			"buffer":0,
			"byteLength":456,
			"byteOffset":66992,
			"target":34962
		},
		{
			"buffer":0,
			"byteLength":456,
			"byteOffset":67448,
			"target":34962
		},
		{
			"buffer":0,
			"byteLength":304,
			"byteOffset":67904,
			"target":34962
		},
		{
			"buffer":0,
			"byteLength":720,
			"byteOffset":68208,
			"target":34962
		},
		{
			"buffer":0,
			"byteLength":720,
			"byteOffset":68928,
			"target":34962
		},
		{
			"buffer":0,
			"byteLength":480,
			"byteOffset":69648,
			"target":34962
		},
		{
			"buffer":0,
			"byteLength":420,
			"byteOffset":70128,
			"target":34963
		},
		{
			"buffer":0,
			"byteLength":9072,
			"byteOffset":70548,
			"target":34962
		},
		{
			"buffer":0,
			"byteLength":9072,
			"byteOffset":79620,
			"target":34962
		},
		{
			"buffer":0,
			"byteLength":6048,
			"byteOffset":88692,
			"target":34962
		},
		{
			"buffer":0,
			"byteLength":4344,
			"byteOffset":94740,
			"target":34963
		},
		{
			"buffer":0,
			"byteLength":4104,
			"byteOffset":99084,
			"target":34962
		},
		{
			"buffer":0,
			"byteLength":4104,
			"byteOffset":103188,
			"target":34962
		},
		{
			"buffer":0,
			"byteLength":2736,
			"byteOffset":107292,
			"target":34962
		},
		{
			"buffer":0,
			"byteLength":1920,
			"byteOffset":110028,
			"target":34963
		},
		{
			"buffer":0,
			"byteLength":1704,
			"byteOffset":111948,
			"target":34962
		},
		{
			"buffer":0,
			"byteLength":1704,
			"byteOffset":113652,
			"target":34962
		},
		{
			"buffer":0,
			"byteLength":1136,
			"byteOffset":115356,
			"target":34962
		},
		{
			"buffer":0,
			"byteLength":1140,
			"byteOffset":116492,
			"target":34963
		},
		{
			"buffer":0,
			"byteLength":888,
			"byteOffset":117632,
			"target":34962
		},
		{
			"buffer":0,
			"byteLength":888,
			"byteOffset":118520,
			"target":34962
		},
		{
			"buffer":0,
			"byteLength":592,
			"byteOffset":119408,
			"target":34962
		},
		{
			"buffer":0,
			"byteLength":594,
			"byteOffset":120000,
			"target":34963
		},
		{
			"buffer":0,
			"byteLength":216,
			"byteOffset":120596,
			"target":34962
		},
		{
			"buffer":0,
			"byteLength":216,
			"byteOffset":120812,
			"target":34962
		},
		{
			"buffer":0,
			"byteLength":144,
			"byteOffset":121028,
			"target":34962
		},
		{
			"buffer":0,
			"byteLength":108,
			"byteOffset":121172,
			"target":34963
		},
		{
			"buffer":0,
			"byteLength":732,
			"byteOffset":121280,
			"target":34962
		},
		{
			"buffer":0,
			"byteLength":732,
			"byteOffset":122012,
			"target":34962
		},
		{
			"buffer":0,
			"byteLength":488,
			"byteOffset":122744,
			"target":34962
		},
		{
			"buffer":0,
			"byteLength":504,
			"byteOffset":123232,
			"target":34963
		},
		{
			"buffer":0,
			"byteLength":5184,
			"byteOffset":123736,
			"target":34962
		},
		{
			"buffer":0,
			"byteLength":5184,
			"byteOffset":128920,
			"target":34962
		},
		{
			"buffer":0,
			"byteLength":3456,
			"byteOffset":134104,
			"target":34962
		},
		{
			"buffer":0,
			"byteLength":2304,
			"byteOffset":137560,
			"target":34963
		},
		{
			"buffer":0,
			"byteLength":2880,
			"byteOffset":139864,
			"target":34962
		},
		{
			"buffer":0,
			"byteLength":2880,
			"byteOffset":142744,
			"target":34962
		},
		{
			"buffer":0,
			"byteLength":1920,
			"byteOffset":145624,
			"target":34962
		},
		{
			"buffer":0,
			"byteLength":1296,
			"byteOffset":147544,
			"target":34963
		},
		{
			"buffer":0,
			"byteLength":768,
			"byteOffset":148840,
			"target":34962
		},
		{
			"buffer":0,
			"byteLength":768,
			"byteOffset":149608,
			"target":34962
		},
		{
			"buffer":0,
			"byteLength":512,
			"byteOffset":150376,
			"target":34962
		},
		{
			"buffer":0,
			"byteLength":528,
			"byteOffset":150888,
			"target":34963
		},
		{
			"buffer":0,
			"byteLength":960,
			"byteOffset":151416,
			"target":34962
		},
		{
			"buffer":0,
			"byteLength":960,
			"byteOffset":152376,
			"target":34962
		},
		{
			"buffer":0,
			"byteLength":640,
			"byteOffset":153336,
			"target":34962
		},
		{
			"buffer":0,
			"byteLength":456,
			"byteOffset":153976,
			"target":34963
		},
		{
			"buffer":0,
			"byteLength":480,
			"byteOffset":154432,
			"target":34962
		},
		{
			"buffer":0,
			"byteLength":480,
			"byteOffset":154912,
			"target":34962
		},
		{
			"buffer":0,
			"byteLength":320,
			"byteOffset":155392,
			"target":34962
		},
		{
			"buffer":0,
			"byteLength":288,
			"byteOffset":155712,
			"target":34963
		},
		{
			"buffer":0,
			"byteLength":888,
			"byteOffset":156000,
			"target":34962
		},
		{
			"buffer":0,
			"byteLength":888,
			"byteOffset":156888,
			"target":34962
		},
		{
			"buffer":0,
			"byteLength":592,
			"byteOffset":157776,
			"target":34962
		},
		{
			"buffer":0,
			"byteLength":654,
			"byteOffset":158368,
			"target":34963
		},
		{
			"buffer":0,
			"byteLength":468,
			"byteOffset":159024,
			"target":34962
		},
		{
			"buffer":0,
			"byteLength":468,
			"byteOffset":159492,
			"target":34962
		},
		{
			"buffer":0,
			"byteLength":312,
			"byteOffset":159960,
			"target":34962
		},
		{
			"buffer":0,
			"byteLength":312,
			"byteOffset":160272,
			"target":34963
		},
		{
			"buffer":0,
			"byteLength":15900,
			"byteOffset":160584,
			"target":34962
		},
		{
			"buffer":0,
			"byteLength":15900,
			"byteOffset":176484,
			"target":34962
		},
		{
			"buffer":0,
			"byteLength":10600,
			"byteOffset":192384,
			"target":34962
		},
		{
			"buffer":0,
			"byteLength":5300,
			"byteOffset":202984,
			"target":34962
		},
		{
			"buffer":0,
			"byteLength":10600,
			"byteOffset":208284,
			"target":34962
		},
		{
			"buffer":0,
			"byteLength":11634,
			"byteOffset":218884,
			"target":34963
		},
		{
			"buffer":0,
			"byteLength":4032,
			"byteOffset":230520,
			"target":34962
		},
		{
			"buffer":0,
			"byteLength":4032,
			"byteOffset":234552,
			"target":34962
		},
		{
			"buffer":0,
			"byteLength":2688,
			"byteOffset":238584,
			"target":34962
		},
		{
			"buffer":0,
			"byteLength":1920,
			"byteOffset":241272,
			"target":34963
		},
		{
			"buffer":0,
			"byteLength":2472,
			"byteOffset":243192,
			"target":34962
		},
		{
			"buffer":0,
			"byteLength":2472,
			"byteOffset":245664,
			"target":34962
		},
		{
			"buffer":0,
			"byteLength":1648,
			"byteOffset":248136,
			"target":34962
		},
		{
			"buffer":0,
			"byteLength":2184,
			"byteOffset":249784,
			"target":34963
		},
		{
			"buffer":0,
			"byteLength":132,
			"byteOffset":251968,
			"target":34962
		},
		{
			"buffer":0,
			"byteLength":132,
			"byteOffset":252100,
			"target":34962
		},
		{
			"buffer":0,
			"byteLength":88,
			"byteOffset":252232,
			"target":34962
		},
		{
			"buffer":0,
			"byteLength":72,
			"byteOffset":252320,
			"target":34963
		},
		{
			"buffer":0,
			"byteLength":132,
			"byteOffset":252392,
			"target":34962
		},
		{
			"buffer":0,
			"byteLength":132,
			"byteOffset":252524,
			"target":34962
		},
		{
			"buffer":0,
			"byteLength":88,
			"byteOffset":252656,
			"target":34962
		},
		{
			"buffer":0,
			"byteLength":72,
			"byteOffset":252744,
			"target":34963
		},
		{
			"buffer":0,
			"byteLength":3168,
			"byteOffset":252816,
			"target":34962
		},
		{
			"buffer":0,
			"byteLength":3168,
			"byteOffset":255984,
			"target":34962
		},
		{
			"buffer":0,
			"byteLength":2112,
			"byteOffset":259152,
			"target":34962
		},
		{
			"buffer":0,
			"byteLength":1764,
			"byteOffset":261264,
			"target":34963
		},
		{
			"buffer":0,
			"byteLength":480,
			"byteOffset":263028,
			"target":34962
		},
		{
			"buffer":0,
			"byteLength":480,
			"byteOffset":263508,
			"target":34962
		},
		{
			"buffer":0,
			"byteLength":320,
			"byteOffset":263988,
			"target":34962
		},
		{
			"buffer":0,
			"byteLength":120,
			"byteOffset":264308,
			"target":34963
		},
		{
			"buffer":0,
			"byteLength":5052,
			"byteOffset":264428,
			"target":34962
		},
		{
			"buffer":0,
			"byteLength":5052,
			"byteOffset":269480,
			"target":34962
		},
		{
			"buffer":0,
			"byteLength":3368,
			"byteOffset":274532,
			"target":34962
		},
		{
			"buffer":0,
			"byteLength":1338,
			"byteOffset":277900,
			"target":34963
		},
		{
			"buffer":0,
			"byteLength":2424,
			"byteOffset":279240,
			"target":34962
		},
		{
			"buffer":0,
			"byteLength":2424,
			"byteOffset":281664,
			"target":34962
		},
		{
			"buffer":0,
			"byteLength":1616,
			"byteOffset":284088,
			"target":34962
		},
		{
			"buffer":0,
			"byteLength":636,
			"byteOffset":285704,
			"target":34963
		},
		{
			"buffer":0,
			"byteLength":2016,
			"byteOffset":286340,
			"target":34962
		},
		{
			"buffer":0,
			"byteLength":2016,
			"byteOffset":288356,
			"target":34962
		},
		{
			"buffer":0,
			"byteLength":1344,
			"byteOffset":290372,
			"target":34962
		},
		{
			"buffer":0,
			"byteLength":504,
			"byteOffset":291716,
			"target":34963
		},
		{
			"buffer":0,
			"byteLength":672,
			"byteOffset":292220,
			"target":34962
		},
		{
			"buffer":0,
			"byteLength":672,
			"byteOffset":292892,
			"target":34962
		},
		{
			"buffer":0,
			"byteLength":448,
			"byteOffset":293564,
			"target":34962
		},
		{
			"buffer":0,
			"byteLength":168,
			"byteOffset":294012,
			"target":34963
		},
		{
			"buffer":0,
			"byteLength":576,
			"byteOffset":294180,
			"target":34962
		},
		{
			"buffer":0,
			"byteLength":576,
			"byteOffset":294756,
			"target":34962
		},
		{
			"buffer":0,
			"byteLength":384,
			"byteOffset":295332,
			"target":34962
		},
		{
			"buffer":0,
			"byteLength":144,
			"byteOffset":295716,
			"target":34963
		},
		{
			"buffer":0,
			"byteLength":48,
			"byteOffset":295860,
			"target":34962
		},
		{
			"buffer":0,
			"byteLength":48,
			"byteOffset":295908,
			"target":34962
		},
		{
			"buffer":0,
			"byteLength":32,
			"byteOffset":295956,
			"target":34962
		},
		{
			"buffer":0,
			"byteLength":12,
			"byteOffset":295988,
			"target":34963
		},
		{
			"buffer":0,
			"byteLength":840,
			"byteOffset":296000,
			"target":34962
		},
		{
			"buffer":0,
			"byteLength":840,
			"byteOffset":296840,
			"target":34962
		},
		{
			"buffer":0,
			"byteLength":560,
			"byteOffset":297680,
			"target":34962
		},
		{
			"buffer":0,
			"byteLength":480,
			"byteOffset":298240,
			"target":34963
		},
		{
			"buffer":0,
			"byteLength":240,
			"byteOffset":298720,
			"target":34962
		},
		{
			"buffer":0,
			"byteLength":240,
			"byteOffset":298960,
			"target":34962
		},
		{
			"buffer":0,
			"byteLength":160,
			"byteOffset":299200,
			"target":34962
		},
		{
			"buffer":0,
			"byteLength":96,
			"byteOffset":299360,
			"target":34963
		},
		{
			"buffer":0,
			"byteLength":14472,
			"byteOffset":299456,
			"target":34962
		},
		{
			"buffer":0,
			"byteLength":14472,
			"byteOffset":313928,
			"target":34962
		},
		{
			"buffer":0,
			"byteLength":9648,
			"byteOffset":328400,
			"target":34962
		},
		{
			"buffer":0,
			"byteLength":4452,
			"byteOffset":338048,
			"target":34963
		},
		{
			"buffer":0,
			"byteLength":3696,
			"byteOffset":342500,
			"target":34962
		},
		{
			"buffer":0,
			"byteLength":3696,
			"byteOffset":346196,
			"target":34962
		},
		{
			"buffer":0,
			"byteLength":2464,
			"byteOffset":349892,
			"target":34962
		},
		{
			"buffer":0,
			"byteLength":1368,
			"byteOffset":352356,
			"target":34963
		},
		{
			"buffer":0,
			"byteLength":432,
			"byteOffset":353724,
			"target":34962
		},
		{
			"buffer":0,
			"byteLength":432,
			"byteOffset":354156,
			"target":34962
		},
		{
			"buffer":0,
			"byteLength":288,
			"byteOffset":354588,
			"target":34962
		},
		{
			"buffer":0,
			"byteLength":216,
			"byteOffset":354876,
			"target":34963
		},
		{
			"buffer":0,
			"byteLength":648,
			"byteOffset":355092,
			"target":34962
		},
		{
			"buffer":0,
			"byteLength":648,
			"byteOffset":355740,
			"target":34962
		},
		{
			"buffer":0,
			"byteLength":432,
			"byteOffset":356388,
			"target":34962
		},
		{
			"buffer":0,
			"byteLength":300,
			"byteOffset":356820,
			"target":34963
		},
		{
			"buffer":0,
			"byteLength":2112,
			"byteOffset":357120,
			"target":34962
		},
		{
			"buffer":0,
			"byteLength":2112,
			"byteOffset":359232,
			"target":34962
		},
		{
			"buffer":0,
			"byteLength":1408,
			"byteOffset":361344,
			"target":34962
		},
		{
			"buffer":0,
			"byteLength":528,
			"byteOffset":362752,
			"target":34963
		},
		{
			"buffer":0,
			"byteLength":14472,
			"byteOffset":363280,
			"target":34962
		},
		{
			"buffer":0,
			"byteLength":14472,
			"byteOffset":377752,
			"target":34962
		},
		{
			"buffer":0,
			"byteLength":9648,
			"byteOffset":392224,
			"target":34962
		},
		{
			"buffer":0,
			"byteLength":4452,
			"byteOffset":401872,
			"target":34963
		},
		{
			"buffer":0,
			"byteLength":3696,
			"byteOffset":406324,
			"target":34962
		},
		{
			"buffer":0,
			"byteLength":3696,
			"byteOffset":410020,
			"target":34962
		},
		{
			"buffer":0,
			"byteLength":2464,
			"byteOffset":413716,
			"target":34962
		},
		{
			"buffer":0,
			"byteLength":1368,
			"byteOffset":416180,
			"target":34963
		},
		{
			"buffer":0,
			"byteLength":960,
			"byteOffset":417548,
			"target":34962
		},
		{
			"buffer":0,
			"byteLength":960,
			"byteOffset":418508,
			"target":34962
		},
		{
			"buffer":0,
			"byteLength":640,
			"byteOffset":419468,
			"target":34962
		},
		{
			"buffer":0,
			"byteLength":240,
			"byteOffset":420108,
			"target":34963
		},
		{
			"buffer":0,
			"byteLength":960,
			"byteOffset":420348,
			"target":34962
		},
		{
			"buffer":0,
			"byteLength":960,
			"byteOffset":421308,
			"target":34962
		},
		{
			"buffer":0,
			"byteLength":640,
			"byteOffset":422268,
			"target":34962
		},
		{
			"buffer":0,
			"byteLength":2772,
			"byteOffset":422908,
			"target":34962
		},
		{
			"buffer":0,
			"byteLength":2772,
			"byteOffset":425680,
			"target":34962
		},
		{
			"buffer":0,
			"byteLength":1848,
			"byteOffset":428452,
			"target":34962
		},
		{
			"buffer":0,
			"byteLength":738,
			"byteOffset":430300,
			"target":34963
		},
		{
			"buffer":0,
			"byteLength":2772,
			"byteOffset":431040,
			"target":34962
		},
		{
			"buffer":0,
			"byteLength":2772,
			"byteOffset":433812,
			"target":34962
		},
		{
			"buffer":0,
			"byteLength":1848,
			"byteOffset":436584,
			"target":34962
		},
		{
			"buffer":0,
			"byteLength":738,
			"byteOffset":438432,
			"target":34963
		},
		{
			"buffer":0,
			"byteLength":2772,
			"byteOffset":439172,
			"target":34962
		},
		{
			"buffer":0,
			"byteLength":2772,
			"byteOffset":441944,
			"target":34962
		},
		{
			"buffer":0,
			"byteLength":1848,
			"byteOffset":444716,
			"target":34962
		},
		{
			"buffer":0,
			"byteLength":738,
			"byteOffset":446564,
			"target":34963
		},
		{
			"buffer":0,
			"byteLength":2772,
			"byteOffset":447304,
			"target":34962
		},
		{
			"buffer":0,
			"byteLength":2772,
			"byteOffset":450076,
			"target":34962
		},
		{
			"buffer":0,
			"byteLength":1848,
			"byteOffset":452848,
			"target":34962
		},
		{
			"buffer":0,
			"byteLength":738,
			"byteOffset":454696,
			"target":34963
		},
		{
			"buffer":0,
			"byteLength":2772,
			"byteOffset":455436,
			"target":34962
		},
		{
			"buffer":0,
			"byteLength":2772,
			"byteOffset":458208,
			"target":34962
		},
		{
			"buffer":0,
			"byteLength":1848,
			"byteOffset":460980,
			"target":34962
		},
		{
			"buffer":0,
			"byteLength":738,
			"byteOffset":462828,
			"target":34963
		},
		{
			"buffer":0,
			"byteLength":2772,
			"byteOffset":463568,
			"target":34962
		},
		{
			"buffer":0,
			"byteLength":2772,
			"byteOffset":466340,
			"target":34962
		},
		{
			"buffer":0,
			"byteLength":1848,
			"byteOffset":469112,
			"target":34962
		},
		{
			"buffer":0,
			"byteLength":738,
			"byteOffset":470960,
			"target":34963
		},
		{
			"buffer":0,
			"byteLength":2772,
			"byteOffset":471700,
			"target":34962
		},
		{
			"buffer":0,
			"byteLength":2772,
			"byteOffset":474472,
			"target":34962
		},
		{
			"buffer":0,
			"byteLength":1848,
			"byteOffset":477244,
			"target":34962
		},
		{
			"buffer":0,
			"byteLength":738,
			"byteOffset":479092,
			"target":34963
		},
		{
			"buffer":0,
			"byteLength":2772,
			"byteOffset":479832,
			"target":34962
		},
		{
			"buffer":0,
			"byteLength":2772,
			"byteOffset":482604,
			"target":34962
		},
		{
			"buffer":0,
			"byteLength":1848,
			"byteOffset":485376,
			"target":34962
		},
		{
			"buffer":0,
			"byteLength":738,
			"byteOffset":487224,
			"target":34963
		},
		{
			"buffer":0,
			"byteLength":2772,
			"byteOffset":487964,
			"target":34962
		},
		{
			"buffer":0,
			"byteLength":2772,
			"byteOffset":490736,
			"target":34962
		},
		{
			"buffer":0,
			"byteLength":1848,
			"byteOffset":493508,
			"target":34962
		},
		{
			"buffer":0,
			"byteLength":738,
			"byteOffset":495356,
			"target":34963
		},
		{
			"buffer":0,
			"byteLength":2772,
			"byteOffset":496096,
			"target":34962
		},
		{
			"buffer":0,
			"byteLength":2772,
			"byteOffset":498868,
			"target":34962
		},
		{
			"buffer":0,
			"byteLength":1848,
			"byteOffset":501640,
			"target":34962
		},
		{
			"buffer":0,
			"byteLength":738,
			"byteOffset":503488,
			"target":34963
		},
		{
			"buffer":0,
			"byteLength":2772,
			"byteOffset":504228,
			"target":34962
		},
		{
			"buffer":0,
			"byteLength":2772,
			"byteOffset":507000,
			"target":34962
		},
		{
			"buffer":0,
			"byteLength":1848,
			"byteOffset":509772,
			"target":34962
		},
		{
			"buffer":0,
			"byteLength":738,
			"byteOffset":511620,
			"target":34963
		},
		{
			"buffer":0,
			"byteLength":2772,
			"byteOffset":512360,
			"target":34962
		},
		{
			"buffer":0,
			"byteLength":2772,
			"byteOffset":515132,
			"target":34962
		},
		{
			"buffer":0,
			"byteLength":1848,
			"byteOffset":517904,
			"target":34962
		},
		{
			"buffer":0,
			"byteLength":738,
			"byteOffset":519752,
			"target":34963
		},
		{
			"buffer":0,
			"byteLength":8,
			"byteOffset":520492
		},
		{
			"buffer":0,
			"byteLength":24,
			"byteOffset":520500
		},
		{
			"buffer":0,
			"byteLength":84,
			"byteOffset":520524
		},
		{
			"buffer":0,
			"byteLength":336,
			"byteOffset":520608
		},
		{
			"buffer":0,
			"byteLength":24,
			"byteOffset":520944
		},
		{
			"buffer":0,
			"byteLength":252,
			"byteOffset":520968
		},
		{
			"buffer":0,
			"byteLength":336,
			"byteOffset":521220
		},
		{
			"buffer":0,
			"byteLength":24,
			"byteOffset":521556
		},
		{
			"buffer":0,
			"byteLength":336,
			"byteOffset":521580
		},
		{
			"buffer":0,
			"byteLength":252,
			"byteOffset":521916
		},
		{
			"buffer":0,
			"byteLength":252,
			"byteOffset":522168
		},
		{
			"buffer":0,
			"byteLength":336,
			"byteOffset":522420
		},
		{
			"buffer":0,
			"byteLength":24,
			"byteOffset":522756
		},
		{
			"buffer":0,
			"byteLength":336,
			"byteOffset":522780
		}
	],
	"samplers":[
		{
			"magFilter":9729,
			"minFilter":9987
		}
	],
	"buffers":[
		{
			"byteLength":523116,
			"uri":"F2.bin"
		}
	]
}
