<svg width="98" height="36" viewBox="0 0 98 36" fill="none" xmlns="http://www.w3.org/2000/svg">
<path d="M97 34C97 34 80.1111 25.6873 68.1111 17.5C56.1111 9.31267 49.8889 1.85714 49.8889 1.85714C49.8889 1.85714 48 2.08802 45.5 1.85714C43 1.62626 41 1 41 1C41 1 34.7778 10.1667 25.8889 17.5C17 24.8333 1 34 1 34" stroke="white"/>
<path d="M27.168 24.552C27.304 24.552 27.416 24.604 27.504 24.708C27.6 24.804 27.648 24.916 27.648 25.044C27.648 25.092 27.64 25.144 27.624 25.2C27.616 25.248 27.596 25.296 27.564 25.344L24.78 29.22L24.936 28.632V32.508C24.936 32.644 24.888 32.76 24.792 32.856C24.704 32.952 24.596 33 24.468 33C24.324 33 24.204 32.952 24.108 32.856C24.02 32.76 23.976 32.644 23.976 32.508V28.728L24.06 29.04L21.36 25.392C21.312 25.328 21.276 25.268 21.252 25.212C21.236 25.148 21.228 25.088 21.228 25.032C21.228 24.896 21.284 24.784 21.396 24.696C21.508 24.6 21.62 24.552 21.732 24.552C21.892 24.552 22.024 24.628 22.128 24.78L24.612 28.188L24.384 28.152L26.772 24.792C26.876 24.632 27.008 24.552 27.168 24.552ZM35.5788 28.8C35.5788 29.416 35.4788 29.988 35.2788 30.516C35.0788 31.036 34.7988 31.492 34.4388 31.884C34.0788 32.276 33.6508 32.58 33.1548 32.796C32.6588 33.012 32.1188 33.12 31.5348 33.12C30.9428 33.12 30.3988 33.012 29.9028 32.796C29.4148 32.58 28.9908 32.276 28.6308 31.884C28.2708 31.492 27.9908 31.036 27.7908 30.516C27.5908 29.988 27.4908 29.416 27.4908 28.8C27.4908 28.176 27.5908 27.604 27.7908 27.084C27.9908 26.556 28.2708 26.1 28.6308 25.716C28.9908 25.324 29.4148 25.02 29.9028 24.804C30.3988 24.588 30.9428 24.48 31.5348 24.48C32.1188 24.48 32.6588 24.588 33.1548 24.804C33.6508 25.02 34.0788 25.324 34.4388 25.716C34.7988 26.1 35.0788 26.556 35.2788 27.084C35.4788 27.604 35.5788 28.176 35.5788 28.8ZM34.5468 28.8C34.5468 28.144 34.4148 27.564 34.1508 27.06C33.8948 26.556 33.5428 26.16 33.0948 25.872C32.6468 25.584 32.1268 25.44 31.5348 25.44C30.9428 25.44 30.4188 25.584 29.9628 25.872C29.5148 26.16 29.1628 26.556 28.9068 27.06C28.6508 27.564 28.5228 28.144 28.5228 28.8C28.5228 29.448 28.6508 30.028 28.9068 30.54C29.1628 31.044 29.5148 31.44 29.9628 31.728C30.4188 32.016 30.9428 32.16 31.5348 32.16C32.1268 32.16 32.6468 32.016 33.0948 31.728C33.5428 31.44 33.8948 31.044 34.1508 30.54C34.4148 30.028 34.5468 29.448 34.5468 28.8ZM38.9405 33C38.7965 33 38.6765 32.952 38.5805 32.856C38.4845 32.76 38.4365 32.644 38.4365 32.508V25.092H39.4565V32.508C39.4565 32.644 39.4085 32.76 39.3125 32.856C39.2165 32.952 39.0925 33 38.9405 33ZM36.1565 25.512C36.0205 25.512 35.9045 25.472 35.8085 25.392C35.7205 25.304 35.6765 25.192 35.6765 25.056C35.6765 24.92 35.7205 24.812 35.8085 24.732C35.9045 24.644 36.0205 24.6 36.1565 24.6H41.7365C41.8725 24.6 41.9885 24.644 42.0845 24.732C42.1805 24.812 42.2285 24.92 42.2285 25.056C42.2285 25.2 42.1805 25.312 42.0845 25.392C41.9885 25.472 41.8725 25.512 41.7365 25.512H36.1565ZM43.5524 24.6H47.8244C47.9604 24.6 48.0764 24.644 48.1724 24.732C48.2684 24.82 48.3164 24.932 48.3164 25.068C48.3164 25.204 48.2684 25.316 48.1724 25.404C48.0764 25.484 47.9604 25.524 47.8244 25.524H43.9604L44.0684 25.32V28.356L43.9484 28.224H47.2844C47.4204 28.224 47.5364 28.268 47.6324 28.356C47.7284 28.444 47.7764 28.556 47.7764 28.692C47.7764 28.828 47.7284 28.94 47.6324 29.028C47.5364 29.108 47.4204 29.148 47.2844 29.148H43.9844L44.0684 29.04V32.148L43.9964 32.064H47.8244C47.9604 32.064 48.0764 32.112 48.1724 32.208C48.2684 32.304 48.3164 32.412 48.3164 32.532C48.3164 32.668 48.2684 32.78 48.1724 32.868C48.0764 32.956 47.9604 33 47.8244 33H43.5524C43.4164 33 43.3004 32.952 43.2044 32.856C43.1164 32.76 43.0724 32.644 43.0724 32.508V25.08C43.0724 24.944 43.1164 24.832 43.2044 24.744C43.3004 24.648 43.4164 24.6 43.5524 24.6ZM50.3122 32.508C50.3122 32.644 50.2602 32.76 50.1562 32.856C50.0602 32.952 49.9442 33 49.8082 33C49.6562 33 49.5362 32.952 49.4482 32.856C49.3602 32.76 49.3162 32.644 49.3162 32.508V25.092C49.3162 24.948 49.3642 24.832 49.4602 24.744C49.5562 24.648 49.6762 24.6 49.8202 24.6C49.9562 24.6 50.0722 24.648 50.1682 24.744C50.2642 24.832 50.3122 24.948 50.3122 25.092V32.508Z" fill="white"/>
<rect x="52" y="23" width="20" height="11" rx="2" fill="#D9D9D9"/>
<path d="M53.8203 31.168C53.8203 30.9492 53.8984 30.7656 54.0547 30.6172C54.2031 30.4609 54.3867 30.3828 54.6055 30.3828H59.3398C59.4883 30.375 59.6094 30.3398 59.7031 30.2773C59.8047 30.2148 59.8789 30.1445 59.9258 30.0664C59.9727 29.9883 59.9961 29.9062 59.9961 29.8203C59.9961 29.7344 59.9727 29.6523 59.9258 29.5742C59.8789 29.4961 59.8047 29.4258 59.7031 29.3633C59.6094 29.3008 59.4883 29.2656 59.3398 29.2578H54.6289C54.4102 29.2578 54.2266 29.1797 54.0781 29.0234C53.9219 28.875 53.8438 28.6914 53.8438 28.4727C53.8438 28.2539 53.918 28.0703 54.0664 27.9219C54.2227 27.7656 54.4102 27.6875 54.6289 27.6875H59.2695C59.2773 27.6875 59.2852 27.6875 59.293 27.6875C59.4414 27.6797 59.5625 27.6484 59.6562 27.5938C59.7578 27.5312 59.832 27.4609 59.8789 27.3828C59.9258 27.3047 59.9492 27.2227 59.9492 27.1367C59.9492 27.0586 59.9258 26.9805 59.8789 26.9023C59.832 26.8242 59.7578 26.7578 59.6562 26.7031C59.5625 26.6406 59.4414 26.6055 59.293 26.5977H54.582C54.3633 26.5977 54.1797 26.5195 54.0312 26.3633C53.875 26.2227 53.7969 26.043 53.7969 25.8242C53.7969 25.6133 53.8711 25.4336 54.0195 25.2852C54.1758 25.1367 54.3633 25.0625 54.582 25.0625H59.2227C59.7695 25.0703 60.2188 25.1914 60.5703 25.4258C60.9297 25.6523 61.1836 25.918 61.332 26.2227C61.4883 26.5273 61.5664 26.832 61.5664 27.1367C61.5664 27.4414 61.4883 27.7422 61.332 28.0391C61.2617 28.1797 61.1719 28.3086 61.0625 28.4258C61.1953 28.5664 61.3047 28.7148 61.3906 28.8711C61.5391 29.1836 61.6133 29.5 61.6133 29.8203C61.6133 30.125 61.5352 30.4336 61.3789 30.7461C61.2227 31.0508 60.9688 31.3242 60.6172 31.5664C60.2656 31.8008 59.8164 31.9258 59.2695 31.9414H59.1992C59.1523 31.9492 59.1055 31.9531 59.0586 31.9531H54.6055C54.3867 31.9531 54.1992 31.8789 54.043 31.7305C53.8945 31.5742 53.8203 31.3867 53.8203 31.168ZM67.5992 25.0625C68.1461 25.0938 68.5953 25.3047 68.9469 25.6953C69.2984 26.0781 69.5523 26.5156 69.7086 27.0078C69.8648 27.5 69.943 28.0039 69.943 28.5195C69.943 29.0352 69.8648 29.5391 69.7086 30.0312C69.5602 30.5234 69.3062 30.9648 68.9469 31.3555C68.5953 31.7383 68.1461 31.9453 67.5992 31.9766H63.2867C63.0758 31.9688 62.8961 31.8945 62.7477 31.7539C62.607 31.6055 62.5328 31.4258 62.525 31.2148V28.3086C62.5328 28.0898 62.6148 27.9102 62.7711 27.7695C62.9273 27.6211 63.1148 27.5469 63.3336 27.5469C63.5445 27.5547 63.7242 27.6328 63.8727 27.7812C64.0211 27.9219 64.0992 28.0977 64.107 28.3086V30.0898C64.107 30.3008 64.2164 30.4062 64.4352 30.4062H67.2008C67.4977 30.3906 67.7437 30.2773 67.9391 30.0664C68.1344 29.8555 68.275 29.6172 68.3609 29.3516C68.4547 29.0781 68.5016 28.8008 68.5016 28.5195C68.5016 28.2383 68.4547 27.9648 68.3609 27.6992C68.275 27.4258 68.1344 27.1836 67.9391 26.9727C67.7437 26.7617 67.4977 26.6484 67.2008 26.6328H63.2867C62.818 26.5938 62.5641 26.3398 62.525 25.8711C62.525 25.6523 62.5953 25.4648 62.7359 25.3086C62.8844 25.1523 63.068 25.0703 63.2867 25.0625H67.5992Z" fill="#545454"/>
<path d="M42 3C42 3 43.5 3.85859 45.5 4C47.5 4.14141 49 3.5 49 3.5C49 3.5 52.5 8 55.5 10.5C58.1539 12.7115 65.5 18 65.5 18L58 15.5L56 16.5L52 14.5L49 16L45.5 15L42 16.5L39.5 15L37 17L34 16.5L27.5 19C27.5 19 33 14.5 36 11C39.3823 7.05403 42 3 42 3Z" fill="#D9D9D9"/>
</svg>
